<?xml version="1.0" encoding="utf-8"?>
<!-- Generator: Adobe Illustrator 19.0.0, SVG Export Plug-In . SVG Version: 6.00 Build 0)  -->
<svg version="1.1" id="圖層_1" xmlns="http://www.w3.org/2000/svg" xmlns:xlink="http://www.w3.org/1999/xlink" x="0px" y="0px"
	 width="200px" height="200px" viewBox="0 0 200 200" style="enable-background:new 0 0 200 200;" xml:space="preserve">
<style type="text/css">
	.st0{fill:#0F2F55;}
	.st1{fill:#FFFFFF;}
</style>
<g id="XMLID_1980_">
	<rect id="XMLID_1913_" class="st0" width="200" height="200"/>
	<g id="XMLID_1983_">
		<g id="XMLID_1984_">
			<g id="XMLID_2045_">
				<path id="XMLID_2056_" class="st1" d="M54.4,114.7h4.4c0.4,3.2,1.1,6.1,2.2,8.6c-1.8,1.6-3.8,3.2-6.3,4.6l0.7,1.1
					c2.3-1.4,4.4-2.9,6.1-4.4c1.1,2.4,2.5,4.5,4.1,6.4l0.9-0.8c-1.6-1.8-3-4-4-6.4c1.6-1.6,2.9-3.3,4-5.1l-1.1-0.6
					c-0.9,1.6-2,3-3.4,4.4c-0.9-2.3-1.5-4.9-1.9-7.7h6.7v-1.3H60c-0.1-1.4-0.2-2.9-0.2-4.5c0-0.4,0-0.7,0-1.1h-1.3
					c0,0.4,0,0.7,0,1.1c0,1.6,0.1,3.1,0.2,4.5h-4.3L54.4,114.7z M44,112.9h4.6v8.5l-4.9,2.2l0.5,1.2l4.4-1.9v5.1
					c0,0.9-0.8,1.7-1.7,1.7h-2v1.3h2c1.6,0,3-1.3,3-3v-5.7l4-1.8l-0.5-1.2l-3.5,1.6v-7.9h4v-1.3h-4v-4.2h-1.3v4.2H44L44,112.9z
					 M63.7,108.1v4H65v-4H63.7z"/>
				<path id="XMLID_2049_" class="st1" d="M107.2,131c1.4,0,2.6-1.1,2.6-2.6v-2.2c0-1.4-1.1-2.6-2.6-2.6H92.6
					c-1.4,0-2.6,1.1-2.6,2.6v2.2c0,1.4,1.1,2.6,2.6,2.6H107.2z M105.7,122.2c1.4,0,2.5-1.1,2.5-2.6v-1.2c0-1.4-1.1-2.6-2.5-2.6H94.1
					c-1.4,0-2.5,1.1-2.5,2.6v1.2c0,1.4,1.1,2.6,2.5,2.6H105.7z M92.6,129.7c-0.7,0-1.3-0.6-1.3-1.3v-2.2c0-0.7,0.6-1.3,1.3-1.3h14.7
					c0.7,0,1.3,0.6,1.3,1.3v2.2c0,0.7-0.6,1.3-1.3,1.3H92.6z M94.1,120.9c-0.7,0-1.3-0.6-1.3-1.3v-1.2c0-0.7,0.6-1.3,1.3-1.3h11.6
					c0.7,0,1.3,0.6,1.3,1.3v1.2c0,0.7-0.6,1.3-1.3,1.3H94.1z M105.3,107.4v1.6H94.5v-1.6h-1.3v1.6h-5v1.3h5v1.6h1.3v-1.6h10.8v1.6
					h1.3v-1.6h5V109h-5v-1.6H105.3z M90.1,117.4v-2c0-0.7,0.6-1.3,1.3-1.3h17.2c0.7,0,1.3,0.6,1.3,1.3v2h1.3v-2
					c0-1.4-1.1-2.6-2.5-2.6H91.3c-1.4,0-2.5,1.1-2.5,2.6v2H90.1z"/>
				<path id="XMLID_2046_" class="st1" d="M150.1,125.7v-13.2l4.5-0.5v10.1c0,0.9-0.8,1.7-1.7,1.7h-1v1.3h1c1.6,0,3-1.4,3-3v-11.5
					l-5.7,0.7v-3.8h-1.3v3.9l-4.5,0.5v-3.5H143v3.6l-2.2,0.2l0.2,1.3l2-0.2v14.5c0,1.7,1.4,3,3,3h10.2v-1.3H146
					c-1,0-1.7-0.7-1.7-1.7v-14.6c1.5-0.2,3-0.3,4.5-0.5v13.1L150.1,125.7z M140.2,113.6h-3.1v-4.5h-1.3v4.5h-3v1.3h3v12l-3,1
					l0.4,1.2l7.5-2.4l-0.4-1.3l-3.1,1v-11.6h3.1V113.6z"/>
			</g>
			<path id="XMLID_1999_" class="st1" d="M47,143h3.5v-1.2h-3.1v-1.1h3.1v-1.2h-3.3v-1.2h8.1v1.2h-3.3v1.2H55v1.1h-3.1v1.2h3.4v1.2
				H47L47,143 M47,136.8h0.9l0.9-1.3c0.1-0.1,0.2-0.2,0.3-0.2c0.1-0.1,0.2-0.1,0.4-0.1H53c0.3,0,0.5,0.1,0.7,0.4l0.9,1.2h0.9v1.1
				h-1.3c-0.1,0-0.3,0-0.4-0.1c-0.1,0-0.2-0.1-0.3-0.3l-0.9-1.3h-2.7l-0.9,1.2c-0.2,0.2-0.4,0.4-0.7,0.4H47L47,136.8z M65.4,135.3v8
				c0,0.1,0,0.2-0.1,0.3c-0.1,0.1-0.1,0.2-0.2,0.2c-0.1,0.1-0.2,0.1-0.3,0.2c-0.1,0-0.2,0.1-0.3,0.1h-7.9v-8c0-0.1,0-0.2,0.1-0.3
				c0.1-0.1,0.1-0.2,0.2-0.2c0.1-0.1,0.2-0.1,0.3-0.2c0.1,0,0.2-0.1,0.3-0.1H65.4 M58,136.4v6.5h5.9v-6.5H58 M58.3,141.5h1.9v-1.2
				h-1.7v-1.2h1.7V138h-1.8v-1.2h5.2v1.2h-1.9v1.1h1.8v1.2h-1.8v1.2h0.5l-0.1-0.9h1.1l0.1,0.9h0.3v1.2h-5.3V141.5z M66.4,144.2v-7.9
				c0-0.1,0-0.2,0.1-0.3c0.1-0.1,0.1-0.2,0.2-0.2c0.1-0.1,0.2-0.1,0.3-0.1c0.1,0,0.2,0,0.3,0H70v-0.4h1.4v0.4h3.5v2.3
				c0,0.1,0,0.2-0.1,0.3c0,0.1-0.1,0.2-0.2,0.2c-0.1,0.1-0.2,0.1-0.3,0.1c-0.1,0-0.2,0-0.3,0h-6.1v5.6L66.4,144.2 M68.7,144.2
				l0.6-3.6h-0.9v-1.2h2.6v-0.6h1.4v0.6h2.7v1.2h-4.4l-0.1,0.5h4.1v2.5c0,0.1,0,0.2-0.1,0.3c-0.1,0.1-0.1,0.2-0.2,0.2
				c-0.1,0.1-0.2,0.1-0.3,0.1c-0.1,0-0.2,0-0.3,0h-2.1l-0.1-1.2h1.5v-0.8h-2.8l-0.3,2L68.7,144.2 M67.9,136.8v0.6h5.5v-0.6H67.9z
				 M80.3,144.2V143h-4.1v-1.2h4.1v-1.2h-3.1c-0.1,0-0.2,0-0.3-0.1c-0.1,0-0.2-0.1-0.3-0.2c-0.1-0.1-0.1-0.2-0.1-0.3
				c0-0.1,0-0.2,0-0.3l1.3-2.6h-1.5v-1.1h2l0.4-0.8l1.4,0.2l-0.3,0.7h4.8v1.1h-5.3l-1.1,2.2h2v-1.9h1.4v1.9h2.8v1.2h-2.8v1.2h3.1
				v1.2h-3.1v1.2L80.3,144.2z M89.6,138.5v-1.3h-2.3v1.3h-1.4v-1.6c0-0.2,0.1-0.3,0.2-0.4c0.1-0.1,0.3-0.2,0.4-0.2h3v-0.2h-3.5v-0.9
				h8.5v0.9h-3.5v0.2h3.7v2.2h-1.4v-1.3h-2.3v1.3H89.6 M85.9,143.3h0.2v-1.9h1.2v1.9h0.3v-2.1h-1.7v-2c0-0.2,0.1-0.3,0.2-0.4
				c0.1-0.1,0.3-0.1,0.4-0.1H90v2c0,0.2-0.1,0.3-0.2,0.4c-0.1,0.1-0.2,0.2-0.4,0.2H89v0.6h1v0.8h-1v0.7h1.1v0.9h-4.2L85.9,143.3
				 M94.6,141.7h-1.1c-0.1,0-0.1,0-0.2,0c-0.1,0-0.1,0-0.2-0.1l-0.7-0.4l-0.7,0.4c-0.1,0-0.1,0.1-0.2,0.1s-0.2,0-0.3,0h-0.9
				l-0.1-0.8H91l0.4-0.2l-0.6-0.3h-0.6l0.5-1.8H92l-0.1,0.2h2.3c0.1,0,0.2,0,0.3,0.1s0.1,0.2,0.1,0.3v0.6c0,0.1,0,0.2-0.1,0.2
				c0,0.1-0.1,0.1-0.2,0.2l-0.8,0.4l0.4,0.2h0.8L94.6,141.7 M94.6,141.8v1.9c0,0.2-0.1,0.3-0.2,0.4c-0.1,0.1-0.3,0.1-0.4,0.1h-3.6
				v-1.9c0-0.2,0.1-0.3,0.2-0.4c0.1-0.1,0.3-0.1,0.4-0.1H94.6 M87.2,139.5v0.7h1.6v-0.7H87.2 M91.3,137.9h1.8v0.5h-1.8V137.9
				 M91.3,137.3h1.8v0.5h-1.8V137.3 M87.6,137.3h1.8v0.5h-1.8V137.3 M87.6,137.9h1.8v0.5h-1.8V137.9 M91.7,142.8v0.5h1.5v-0.5H91.7
				 M93.3,139.7L93.3,139.7l-1.6,0l0,0.1l0.8,0.4L93.3,139.7z M104.2,141.4v2.2c0,0.1,0,0.2-0.1,0.2c0,0.1-0.1,0.1-0.2,0.2
				c-0.1,0-0.2,0.1-0.3,0.1c-0.1,0-0.2,0-0.3,0h-7.3V142c0-0.1,0-0.2,0.1-0.2c0-0.1,0.1-0.1,0.2-0.2c0.1,0,0.2-0.1,0.2-0.1
				c0.1,0,0.2,0,0.3,0H104.2 M103.7,138.7v1.9c0,0.1,0,0.2-0.1,0.2c0,0.1-0.1,0.1-0.2,0.2c-0.1,0-0.2,0.1-0.2,0.1
				c-0.1,0-0.2,0-0.2,0h-6.4v-1.9c0-0.1,0-0.2,0.1-0.2c0-0.1,0.1-0.1,0.2-0.2c0.1,0,0.2-0.1,0.3-0.1c0.1,0,0.2,0,0.2,0L103.7,138.7
				 M101.5,137v-0.3h-2.7v0.3h-1.4v-0.3h-1.6v-1.1h1.6v-0.3h1.4v0.3h2.7v-0.3h1.4v0.3h1.6v1.1h-1.6v0.3H101.5 M95.8,138.5v-0.8
				c0-0.1,0-0.2,0.1-0.3c0.1-0.1,0.2-0.1,0.3-0.2c0.2-0.1,0.3-0.1,0.5-0.1h7.7v1.4H103v-0.3h-5.7v0.3H95.8 M97.5,142.5v0.6h5.2v-0.6
				H97.5 M98,139.7v0.4h4.3v-0.4H98z M114,141.4v2.2c0,0.1,0,0.2-0.1,0.2c0,0.1-0.1,0.1-0.2,0.2c-0.1,0-0.2,0.1-0.3,0.1
				c-0.1,0-0.2,0-0.3,0h-7.3V142c0-0.1,0-0.2,0.1-0.2c0-0.1,0.1-0.1,0.2-0.2c0.1,0,0.2-0.1,0.2-0.1c0.1,0,0.2,0,0.3,0H114
				 M113.5,138.7v1.9c0,0.1,0,0.2-0.1,0.2c0,0.1-0.1,0.1-0.2,0.2c-0.1,0-0.2,0.1-0.2,0.1c-0.1,0-0.2,0-0.2,0h-6.4v-1.9
				c0-0.1,0-0.2,0.1-0.2c0-0.1,0.1-0.1,0.2-0.2c0.1,0,0.2-0.1,0.3-0.1c0.1,0,0.2,0,0.2,0L113.5,138.7 M111.2,137v-0.3h-2.7v0.3h-1.4
				v-0.3h-1.6v-1.1h1.6v-0.3h1.4v0.3h2.7v-0.3h1.4v0.3h1.6v1.1h-1.6v0.3H111.2 M105.6,138.5v-0.8c0-0.1,0-0.2,0.1-0.3
				c0.1-0.1,0.2-0.1,0.3-0.2c0.2-0.1,0.3-0.1,0.5-0.1h7.7v1.4h-1.4v-0.3h-5.7v0.3H105.6 M107.3,142.5v0.6h5.2v-0.6H107.3
				 M107.8,139.7v0.4h4.3v-0.4H107.8z M124.2,142.2v1.4c0,0.1,0,0.2-0.1,0.2c-0.1,0.1-0.1,0.1-0.2,0.2c-0.1,0-0.2,0.1-0.3,0.1
				c-0.1,0-0.2,0-0.2,0h-4.2c-0.1,0-0.2,0-0.2,0c-0.1,0-0.2-0.1-0.2-0.1c-0.1,0-0.1-0.1-0.2-0.2c0-0.1-0.1-0.1-0.1-0.2v-6h-0.4v-1.2
				h0.4v-0.9h1.4v0.9h0.5v-1.3h1.5v1.3h2.1v4.5c0,0.1,0,0.2-0.1,0.3c0,0.1-0.1,0.1-0.2,0.2c-0.1,0.1-0.2,0.1-0.3,0.1
				c-0.1,0-0.2,0-0.3,0h-1v-1.1h0.4v-2.9h-0.6v4.7h-1.5v-4.7H120v5.4h2.8v-0.8H124.2 M115.2,142.7h0.7V138h-0.6v-1.2h0.6v-1.5h1.5
				v1.5h0.6v1.2h-0.6v4.7h0.6v1.2h-2.8V142.7z M130.7,144.2v-3.7h-2.8l-0.2,3.3c0,0.2-0.1,0.3-0.2,0.4c-0.1,0.1-0.3,0.1-0.4,0.1
				h-1.6l-0.1-1.2h1l0.2-2.6h-1.4v-1.2h1.5l0.2-2.7h-1.4v-1.2h8.2v1.2h-1.4v2.7h1.7v1.2h-1.7v3.7L130.7,144.2 M128,139.3h2.7v-2.7
				h-2.5L128,139.3z M138.3,135.4h5.4v1.2h-2.9l-0.6,2h3.3v5.1c0,0.1,0,0.2-0.1,0.3c0,0.1-0.1,0.1-0.2,0.2c-0.1,0-0.2,0.1-0.3,0.1
				c-0.1,0-0.2,0-0.3,0h-4V141h-0.6l1.3-4.5h-1L138.3,135.4 M134.7,140l1-0.1v-2.2h-0.9v-1.2h0.9v-1.3h1.4v1.3h0.9v1.2h-0.9v2.1
				l0.8-0.1l0.1,1.1l-0.9,0.1v2.7c0,0.1,0,0.2-0.1,0.2c0,0.1-0.1,0.1-0.2,0.2c-0.1,0-0.2,0.1-0.2,0.1c-0.1,0-0.2,0-0.3,0h-1.3v-1.2
				h0.6v-2l-0.9,0.1L134.7,140 M140.1,139.7v3.4h1.9v-3.4H140.1z M152.9,139.6v4c0,0.1,0,0.2-0.1,0.3c0,0.1-0.1,0.1-0.2,0.2
				c-0.1,0.1-0.1,0.1-0.2,0.1c-0.1,0-0.2,0-0.3,0h-6.2v-2.1h-1.4l1.3-3h-1.3V138h3.3v-0.9h-2.6v-1.2h2.6v-0.7h1.4v0.7h2v0.4l0.4-0.7
				h1.5l-1.2,2.3h1.4v1.2h-6.1l-0.2,0.5L152.9,139.6 M147.4,140.7v0.6h4.1v-0.6H147.4 M151.4,143v-0.6h-4.1v0.6H151.4 M149.4,138
				h1.2l0.4-0.9h-1.7V138z"/>
			<g id="XMLID_1985_">
				<path id="XMLID_1986_" class="st1" d="M70,55.8c-2.6,0-4.8,2.2-4.8,4.8v26.3c0,2.6,2.2,4.8,4.8,4.8H71c0.8,4.1,4.3,7.2,8.6,7.2
					s7.8-3.1,8.6-7.2h24.2c0.8,4.1,4.3,7.2,8.6,7.2s7.8-3.1,8.6-7.2h0.9c2.6,0,4.8-2.2,4.8-4.8V75.7c0-0.6-0.3-1.1-0.8-1.4l-7-4.1
					l-1.6-3.3h3.7c3.1,0,5.6-2.5,5.6-5.6s-2.5-5.6-5.6-5.6H70z M70,59h59.5c1.4,0,2.4,1.1,2.4,2.4s-1.1,2.4-2.4,2.4h-6.2
					c-0.6,0-1.1,0.3-1.4,0.7c-0.3,0.5-0.3,1-0.1,1.5l2.9,6c0.1,0.3,0.4,0.5,0.6,0.7l2.4,1.4c-0.7,0.2-1.3,0.8-1.3,1.6v5.6
					c0,0.9,0.7,1.6,1.6,1.6h4v4c0,0.9-0.7,1.6-1.6,1.6h-0.9c-0.8-4.1-4.3-7.2-8.6-7.2s-7.8,3.1-8.6,7.2h-8.9V65.3
					c0-0.9-0.7-1.6-1.6-1.6H91.5c0,0-0.1,0-0.1,0c-0.8,0.1-1.4,0.8-1.4,1.6v23.1h-1.7c-0.8-4.1-4.3-7.2-8.6-7.2s-7.8,3.1-8.6,7.2H70
					c-0.9,0-1.6-0.7-1.6-1.6V75.7h17.5c0.9,0,1.6-0.7,1.6-1.6v-8.8c0-0.9-0.7-1.6-1.6-1.6H68.4v-3.2C68.4,59.6,69.1,59,70,59L70,59z
					 M107.3,63.7c-0.8,0.1-1.4,0.8-1.4,1.6v8.8c0,0.9,0.7,1.6,1.6,1.6h13.5c0.6,0,1.1-0.3,1.4-0.8s0.3-1.1,0-1.6l-4.7-8.8
					c-0.3-0.5-0.8-0.8-1.4-0.8h-8.8C107.4,63.7,107.3,63.7,107.3,63.7L107.3,63.7z M68.4,66.9h6.4v5.6h-6.4V66.9z M78,66.9h6.4v5.6
					H78V66.9z M93.1,66.9h7.2v21.5h-7.2V66.9z M109,66.9h6.2l3,5.6H109V66.9z M129.7,77.2h2.4v2.4h-2.4V77.2z M79.6,84.4
					c3.1,0,5.6,2.5,5.6,5.6c0,3.1-2.5,5.6-5.6,5.6S74,93.1,74,90C74,86.9,76.5,84.4,79.6,84.4z M120.9,84.4c3.1,0,5.6,2.5,5.6,5.6
					c0,3.1-2.5,5.6-5.6,5.6c-3.1,0-5.6-2.5-5.6-5.6C115.4,86.9,117.8,84.4,120.9,84.4z M79.6,87.6c-1.3,0-2.4,1.1-2.4,2.4
					c0,1.3,1.1,2.4,2.4,2.4c1.3,0,2.4-1.1,2.4-2.4C82,88.7,80.9,87.6,79.6,87.6z M120.9,87.6c-1.3,0-2.4,1.1-2.4,2.4
					c0,1.3,1.1,2.4,2.4,2.4c1.3,0,2.4-1.1,2.4-2.4C123.3,88.7,122.2,87.6,120.9,87.6z"/>
			</g>
		</g>
	</g>
</g>
</svg>
