<?xml version="1.0" encoding="utf-8"?>
<!-- Generator: Adobe Illustrator 19.0.0, SVG Export Plug-In . SVG Version: 6.00 Build 0)  -->
<svg version="1.1" id="圖層_1" xmlns="http://www.w3.org/2000/svg" xmlns:xlink="http://www.w3.org/1999/xlink" x="0px" y="0px"
	 width="200px" height="200px" viewBox="0 0 200 200" style="enable-background:new 0 0 200 200;" xml:space="preserve">
<style type="text/css">
	.st0{fill:url(#XMLID_134_);}
	.st1{fill:#FFFFFF;}
</style>
<g id="XMLID_2140_">
	<linearGradient id="XMLID_134_" gradientUnits="userSpaceOnUse" x1="-16.5488" y1="26.0991" x2="216.5488" y2="173.9009">
		<stop  offset="0" style="stop-color:#EEA849"/>
		<stop  offset="1" style="stop-color:#F46B45"/>
	</linearGradient>
	<rect id="XMLID_117_" class="st0" width="200" height="200"/>
	<g id="XMLID_118_">
		<g id="XMLID_2074_">
			<g id="XMLID_2117_">
				<path id="XMLID_2134_" class="st1" d="M36.2,127.5v-14.2h23v1.7H42v3.8h17.5v1.7h-3.9l0.6,1.3l0.3-0.5h3.2l-2,3.9l0.3,0.6h1.7
					v1.7h-6.2l-3.2-7H49v5.3h1.5v1.7h-7.2v-7H42v7H36.2 M36.7,112.2v-7.8H59v5.7c0,0.7-0.2,1.2-0.7,1.6c-0.5,0.4-1,0.6-1.7,0.6
					L36.7,112.2 M43.5,116.1h14.4v1.7H43.5V116.1 M42.6,107.4H53V106H42.6V107.4 M52.3,110.5c0.2,0,0.3-0.1,0.5-0.2
					c0.1-0.1,0.2-0.3,0.2-0.5v-0.7H42.6v1.4H52.3z"/>
				<path id="XMLID_2126_" class="st1" d="M85.7,120.7l-0.2-2.8h2.1l0.2,2.8H85.7 M81.2,117.8l-0.2,2.8H79l0.2-2.8H81.2 M75,116.5
					h-1v8h0.4c0.2,0,0.3-0.1,0.5-0.2c0.1-0.1,0.2-0.3,0.2-0.5V116.5 M73.9,114.6h1v-8h-1V114.6 M79.2,105.2h1.3l-0.5-1.8h5.1
					l0.5,1.8H88l0.5-1.8h5.1l-0.5,1.8h1.3v1.6h-4.8v1.2h4.4v1.6h-4.4v1.4h5v1.6H79v-1.6h5.2v-1.4h-4.5V108h4.5v-1.2h-4.9L79.2,105.2
					 M79.5,113.4h7.8v1.5h-2v0.8h3l-0.3-2.3H92l0.3,2.3h0.4l-0.3-2.3h1.8l0.3,2.3h0.1v1.6h-2.1l0.4,3l1.6-1.4v2.1l-1.4,1.2l0.5,3.4
					h0.9v1.8h-4.8l-0.3-2l-1.7,1.5v-2.1l1.4-1.3l-0.8-6.3h-3.2v3.7h2.1v1.5h-3.3l-0.4,1.1h3.8v2.1c0,0.5-0.2,0.9-0.5,1.2
					c-0.3,0.3-0.7,0.5-1.2,0.5h-5.5v-1.1h3c0.1,0,0.3,0,0.3-0.1c0.1-0.1,0.1-0.2,0.1-0.3v-0.9h-4.1l0.9-2.4h-1.2V121h2v-3.7H79v-1.6
					h2.5v-0.8h-2L79.5,113.4 M78.4,104.6V124c0,0.3-0.1,0.7-0.2,0.9c-0.1,0.3-0.3,0.5-0.5,0.8c-0.2,0.2-0.4,0.4-0.7,0.5
					c-0.3,0.1-0.5,0.2-0.8,0.2h-5.6v-21.9H78.4z"/>
				<path id="XMLID_2123_" class="st1" d="M113.6,103.4v2.5h2.9v2h-2.9v2.6l4-3.2v2.6l-2.7,2.1h2.7v2h-5.1l-2,1.6h7.2l-3.4,4.9v0.2
					l3.8-0.6v1.9l-3.8,0.6v2.6c0,0.3-0.1,0.7-0.2,0.9s-0.3,0.5-0.5,0.8c-0.2,0.2-0.5,0.4-0.8,0.5c-0.3,0.1-0.6,0.2-1,0.2h-5.1V126
					h1.9c0.2,0,0.4-0.1,0.4-0.2c0.1-0.1,0.1-0.3,0.1-0.5v-2.1l-4.1,0.6v-1.9l4.1-0.6v-1.2l2.4-3.2h-3l-3.4,2.7v-2.5l4.1-3.3h-4.2v-2
					h3.4v-4h-2.9v-2h2.9v-2.5L113.6,103.4 M123.7,103.4l-0.4,3.2h5.8v1.7h-0.4v7l-2.7,5.5l3.1,6.8h-5l-0.7-1.5l-0.8,1.5h-5l3.3-6.8
					l-2.6-5.6v-2.9h4.7v2l0.5,1.1l0.5-1.1v-5.9h-1l-0.4,3.1h-4.5l1.1-8.2L123.7,103.4z"/>
				<path id="XMLID_2118_" class="st1" d="M155.7,125.4c0.2,0,0.4-0.1,0.5-0.2c0.1-0.1,0.2-0.3,0.2-0.5v-1.3H147v4h-6v-13.7h21.5
					v11.3c0,0.3-0.1,0.7-0.2,1c-0.1,0.3-0.3,0.5-0.5,0.8c-0.2,0.2-0.5,0.4-0.8,0.5c-0.3,0.1-0.6,0.2-0.9,0.2h-6.3v-1.9H155.7
					 M154.7,103.5v1.7h9v1.9h-13.6l-2.2,3.4h8c0.2,0,0.4-0.1,0.4-0.3c0.1-0.2,0.1-0.3-0.1-0.5l-1.2-1.6h6.3l1.2,1.6
					c0.4,0.5,0.5,1.1,0.2,1.8c-0.3,0.6-0.8,0.9-1.5,0.9h-20.9l3.5-5.3h-4.2v-1.9h9v-1.7H154.7 M147,121.5h9.4v-2.1H147V121.5
					 M147,115.5v1.9h9.4v-1.9H147z"/>
			</g>
			<path id="XMLID_2084_" class="st1" d="M74.9,132.8l-0.7,1.7h5.5c0,0,0.1,0,0.1,0.1c0,0,0.1,0.1,0.1,0.1c0,0,0,0.1-0.1,0.1
				c0,0-0.1,0.1-0.1,0.1h-5.7l-0.4,1c-0.1,0.1-0.1,0.2,0,0.3c0,0,0.2,0.1,0.3,0.1h5.1c0.4,0,0.5,0.1,0.5,0.3c0,0.1,0,0.2-0.1,0.2
				c-0.1,0.1-0.3,0.3-0.6,0.6c-0.4,0.3-0.7,0.6-1.1,0.8l-0.8,0.5l-0.4,0.2c1,0.5,1.6,0.7,1.8,0.8c0.2,0.1,0.3,0.2,0.3,0.3
				c0,0.1,0,0.2-0.2,0.2c-0.1,0-0.1,0-0.1,0c0,0-0.2-0.1-0.5-0.2c-0.3-0.1-0.9-0.4-1.8-0.8c-0.9-0.4-1.6-0.7-1.8-0.8
				c-0.3-0.1-0.6-0.2-0.8-0.3c-0.3-0.1-0.5-0.2-0.6-0.2c-0.1,0-0.2-0.1-0.2-0.1c-0.1,0-0.1,0-0.2-0.1c-0.1,0-0.1-0.1,0-0.2
				c0-0.1,0.1-0.1,0.2-0.1c0,0,0.2,0.1,0.5,0.2c0.3,0.1,0.6,0.2,0.7,0.3l1.2,0.5l1.1,0.5c1-0.5,1.8-1,2.2-1.4
				c0.4-0.4,0.7-0.6,0.7-0.6c0-0.1,0.1-0.1,0.1-0.1c0,0-0.1,0-0.2,0h-5.1c-0.3,0-0.5-0.1-0.5-0.2c-0.1-0.1-0.1-0.2-0.1-0.3
				c0-0.1,0-0.2,0.1-0.3l0.4-1.1h-1.8c-0.1,0-0.1,0-0.1-0.1c0,0,0-0.1,0-0.1c0-0.1,0.1-0.2,0.2-0.2h2l0.6-1.7h-2.2
				c0,0-0.1,0-0.1-0.1c0,0-0.1-0.1-0.1-0.1c0,0,0-0.1,0.1-0.1c0,0,0.1-0.1,0.1-0.1h2.4l0.3-0.9c0-0.1,0.1-0.1,0.1-0.1s0.1,0,0.2,0.1
				c0.1,0.1,0.1,0.1,0,0.2l-0.2,0.7h4.4c0.1,0,0.2,0,0.2,0.1c0,0.1,0,0.1,0,0.2c0,0-0.1,0.1-0.1,0.1L74.9,132.8z M84,139.7v-7.9
				c0-0.1,0-0.1,0.1-0.2c0.1-0.1,0.1-0.1,0.2,0c0.1,0.1,0.1,0.1,0.1,0.2v7.9h2v-7.9c0-0.1,0-0.1,0-0.1c0,0,0.1-0.1,0.1-0.1
				c0,0,0.1,0,0.1,0.1c0,0,0.1,0.1,0.1,0.1v7.9h2.7c0.1,0,0.2,0,0.2,0.1c0,0.1,0,0.2,0,0.2c0,0-0.1,0.1-0.1,0.1H81
				c-0.1,0-0.1,0-0.1-0.1c0,0-0.1-0.1-0.1-0.1c0-0.1,0-0.1,0.1-0.1c0,0,0.1-0.1,0.1-0.1H84 M81.3,132.6c0,0,0-0.1,0.1-0.2
				c0-0.1,0.1-0.1,0.2,0c0,0,0.1,0.1,0.1,0.1c0,0.1,0.1,0.3,0.2,0.7c0.1,0.4,0.3,1,0.4,1.7c0.2,0.7,0.3,1.4,0.3,2.1s0.1,1.1,0.1,1.3
				c0,0.2-0.1,0.3-0.2,0.3c-0.1,0-0.2-0.1-0.2-0.3l0-0.7c0-0.3,0-0.5-0.1-0.8c0-0.3-0.1-0.6-0.1-0.9s-0.1-0.7-0.2-1
				c-0.1-0.3-0.2-0.7-0.3-1.1c-0.1-0.4-0.2-0.7-0.3-0.9C81.3,132.8,81.3,132.7,81.3,132.6 M87.4,138.6c0-0.1,0.1-0.3,0.2-0.7
				c0.2-0.4,0.3-0.9,0.5-1.4c0.1-0.5,0.3-1.1,0.4-1.8s0.3-1.2,0.3-1.5c0-0.3,0.1-0.5,0.1-0.6c0-0.1,0.1-0.2,0.2-0.2
				c0,0,0.1,0,0.1,0.1c0,0,0,0.1,0,0.1c0,0,0,0.1,0,0.2c0,0.2-0.1,0.5-0.1,0.8c-0.1,0.3-0.2,0.8-0.3,1.4c-0.1,0.6-0.3,1.1-0.4,1.5
				l-0.4,1.3c-0.1,0.4-0.2,0.6-0.3,0.7c-0.1,0.1-0.1,0.2-0.2,0.2c-0.1,0-0.1,0-0.2,0C87.4,138.7,87.4,138.7,87.4,138.6L87.4,138.6z
				 M91.1,134.4c0.1,0.1,0.3,0.3,0.4,0.4c0.1,0.1,0.3,0.3,0.4,0.5c0.1,0.2,0.2,0.3,0.1,0.4c-0.1,0.1-0.1,0.1-0.2,0.1
				c0,0-0.2-0.1-0.3-0.4c-0.2-0.2-0.3-0.4-0.4-0.5c-0.1-0.1-0.2-0.2-0.3-0.3c-0.1-0.1-0.2-0.2-0.2-0.2c0-0.1,0-0.1,0.1-0.2
				C90.5,134.1,90.7,134.2,91.1,134.4 M91,138.8c0.2-0.4,0.3-0.7,0.4-1c0.1-0.3,0.1-0.6,0.2-0.7c0-0.2,0.1-0.3,0.1-0.4
				c0-0.1,0.1-0.1,0.2-0.2c0.1,0,0.2,0,0.2,0.1c0,0.1,0,0.2,0,0.3l-0.1,0.4c0,0.1-0.1,0.3-0.2,0.6c-0.1,0.3-0.1,0.5-0.2,0.6
				c0,0.1-0.1,0.3-0.2,0.6c-0.1,0.3-0.2,0.4-0.2,0.5c0,0.1-0.1,0.2-0.2,0.4c-0.1,0.2-0.2,0.2-0.3,0.2s-0.1-0.1-0.1-0.2
				c0-0.1,0-0.1,0.1-0.2C90.7,139.4,90.8,139.1,91,138.8 M91.2,132.6c-0.1-0.1-0.2-0.2-0.3-0.4c-0.1-0.1-0.2-0.2-0.2-0.3
				c0-0.1,0-0.1,0-0.2s0.1-0.1,0.2-0.1c0.1,0,0.2,0.1,0.3,0.2c0.1,0.1,0.3,0.4,0.5,0.6l0.2,0.2c0.1,0.2,0.1,0.3,0,0.4
				c-0.1,0.1-0.2,0.1-0.3,0C91.7,133.2,91.5,133,91.2,132.6 M95.4,135.5c-0.4,0.5-0.9,0.9-1.3,1.1c-0.5,0.3-0.8,0.4-0.8,0.4
				c-0.1,0-0.1,0-0.2-0.1c0,0,0-0.1,0-0.1c0,0,0.2-0.2,0.4-0.3c0.3-0.2,0.5-0.3,0.6-0.4c0.1-0.1,0.3-0.2,0.5-0.4
				c0.2-0.2,0.4-0.5,0.6-0.7h-1.8c-0.1,0-0.1,0-0.1,0c0,0-0.1-0.1-0.1-0.1c0,0,0-0.1,0-0.1c0,0,0.1-0.1,0.1-0.1h2V133
				c0,0,0-0.1,0.1-0.1c0,0,0.1-0.1,0.1-0.1c0.1,0,0.2,0.1,0.2,0.2v1.5h2c0,0,0.1,0,0.1,0.1c0,0,0.1,0.1,0.1,0.1c0,0,0,0.1-0.1,0.1
				c0,0-0.1,0.1-0.1,0.1h-1.8c0.3,0.4,0.6,0.7,0.8,0.9c0.2,0.2,0.5,0.4,0.8,0.6l0.3,0.2c0.1,0.1,0.2,0.1,0.2,0.2
				c0,0.1,0,0.1-0.1,0.3c-0.1,0.1-0.3,0-0.8-0.4l-0.6-0.5c-0.2-0.2-0.5-0.5-0.8-0.9v1.6c0,0.1,0,0.1-0.1,0.1c0,0-0.1,0.1-0.1,0.1
				c0,0-0.1,0-0.1-0.1c0,0-0.1-0.1-0.1-0.1L95.4,135.5 M93.9,133.8l-0.2-0.3c0,0,0-0.1,0-0.1c0,0,0-0.1,0.1-0.1
				c0.1-0.1,0.1-0.1,0.2,0c0,0,0.1,0.1,0.1,0.1l0.3,0.4c0.2,0.2,0.3,0.4,0.3,0.4c0,0.1,0,0.1,0,0.2c0,0.1-0.1,0.1-0.2,0
				C94.3,134.3,94.2,134.2,93.9,133.8 M96.4,134.1l0.3-0.4c0.1-0.1,0.2-0.2,0.3-0.4c0.1-0.2,0.3-0.2,0.4-0.2c0.1,0.1,0.1,0.2,0,0.3
				c0,0.1-0.1,0.1-0.1,0.2l-0.5,0.6c-0.1,0.1-0.2,0.2-0.3,0.2s-0.2,0-0.2-0.1C96.3,134.3,96.3,134.2,96.4,134.1 M94.8,132.2l0.3-0.6
				c0-0.1,0.1-0.1,0.1-0.1c0.1,0,0.1,0,0.2,0c0.1,0,0.1,0.1,0.1,0.2c0,0.1,0,0.1-0.1,0.2l-0.2,0.3h2.7c0.4,0,0.6,0.1,0.7,0.3
				c0.1,0.2,0.1,0.4,0.1,0.5v4.9h0.2c0,0,0.1,0,0.1,0.1c0,0,0.1,0.1,0.1,0.1c0,0,0,0.1-0.1,0.1c0,0-0.1,0.1-0.2,0.1h-3.1
				c0.3,0.4,0.7,0.7,1.2,1c0.4,0.2,1,0.4,1.6,0.5l0.4,0.1c0.1,0,0.2,0.1,0.2,0.2c0,0.1,0,0.2-0.1,0.2c-0.1,0-0.1,0.1-0.2,0l-0.3-0.1
				c-0.1,0-0.3-0.1-0.6-0.1c-0.3-0.1-0.6-0.2-0.8-0.3c-0.3-0.1-0.6-0.3-0.9-0.5c-0.3-0.2-0.6-0.5-0.9-0.9c-0.2,0.3-0.6,0.7-1,1
				c-0.4,0.3-1,0.6-1.6,0.7c-0.7,0.1-1,0.1-1,0c0-0.1,0-0.2,0-0.2c0.1,0,0.1-0.1,0.2-0.1l0.3-0.1c0.8-0.1,1.4-0.4,1.7-0.6
				c0.4-0.3,0.6-0.4,0.6-0.5l0.3-0.4l-2.9,0c-0.1,0-0.1,0-0.1,0c0,0-0.1-0.1-0.1-0.1c0-0.1,0-0.1,0.1-0.1c0,0,0.1-0.1,0.1-0.1h0.3
				v-4.9c0-0.5,0.2-0.7,0.7-0.7L94.8,132.2 M92.8,137.8h2.4c0-0.1,0-0.1,0-0.2c0-0.1,0-0.1,0.1-0.2s0.1-0.1,0.2-0.1
				c0.1,0,0.1,0.1,0.1,0.1c0,0,0,0.1,0,0.2l0,0.1h2.6l0-4.9c0-0.1,0-0.2,0-0.3c0-0.1-0.1-0.1-0.3-0.1h-4.7c-0.2,0-0.4,0.1-0.4,0.4
				V137.8z M100,139.6c0.2-0.3,0.4-0.6,0.5-1c0.2-0.4,0.3-0.6,0.3-0.7c0-0.1,0.1-0.3,0.2-0.6c0.1-0.3,0.1-0.4,0.2-0.6
				c0-0.1,0.1-0.2,0.1-0.3c0.1-0.1,0.1-0.1,0.2-0.1c0.1,0,0.1,0.1,0,0.3c0,0-0.1,0.2-0.2,0.6c-0.1,0.3-0.3,0.8-0.5,1.4
				c-0.3,0.6-0.5,1-0.6,1.1c-0.1,0.2-0.2,0.2-0.3,0.2C99.9,140,99.9,139.8,100,139.6 M100.6,134.6c0.2,0.1,0.4,0.3,0.6,0.5
				c0.3,0.2,0.4,0.3,0.4,0.4c0,0.1,0,0.1,0,0.2c0,0-0.1,0.1-0.2,0c0,0-0.1,0-0.2-0.1c-0.1-0.1-0.2-0.2-0.5-0.4
				c-0.3-0.2-0.5-0.3-0.6-0.4c-0.1-0.1-0.2-0.1-0.2-0.2c0,0,0-0.1,0-0.2c0-0.1,0.1-0.1,0.1-0.1C100.2,134.3,100.3,134.4,100.6,134.6
				 M100.6,131.7c0.2,0.2,0.4,0.3,0.6,0.5c0.1,0.1,0.3,0.2,0.4,0.4c0.1,0.1,0.2,0.2,0.3,0.3c0.1,0.1,0.1,0.2,0,0.3
				c-0.1,0.1-0.2,0.1-0.2,0.1c0,0-0.2-0.1-0.4-0.4c-0.2-0.2-0.5-0.4-0.7-0.6c-0.3-0.2-0.4-0.3-0.4-0.4c0-0.1,0-0.1,0-0.2
				C100.3,131.6,100.4,131.6,100.6,131.7 M103.5,133.9v-2.2c0-0.1,0-0.1,0.1-0.2s0.1-0.1,0.1-0.1c0,0,0.1,0,0.1,0.1
				c0,0,0.1,0.1,0.1,0.2v2.1c0,0.1,0,0.4,0,0.7c0,0.3,0,0.6,0,0.8c0,0.2,0,0.5,0,0.7c0,0.3,0,0.6-0.1,1.2c-0.1,0.5-0.2,1-0.4,1.4
				c-0.2,0.4-0.5,0.8-0.7,1.1c-0.3,0.3-0.4,0.4-0.5,0.4c-0.1,0-0.2,0-0.2-0.1c0,0,0-0.1,0-0.2c0,0,0.2-0.2,0.4-0.4
				c0.3-0.2,0.5-0.6,0.7-1c0.2-0.4,0.3-0.7,0.3-1c0-0.2,0.1-0.5,0.1-0.8c0-0.3,0.1-0.6,0.1-0.8c0-0.2,0-0.4,0-0.6l0-0.6L103.5,133.9
				L103.5,133.9 M102.4,135c0-0.2,0.1-0.5,0.1-0.7c0-0.2,0-0.5,0.1-0.8c0-0.3,0.1-0.5,0.2-0.5c0.1,0,0.2,0.1,0.2,0.3
				c0,0.1,0,0.3-0.1,0.7c0,0.3-0.1,0.7-0.1,1c0,0.3-0.1,0.7-0.2,1.2c-0.1,0.5-0.2,0.7-0.2,0.8l-0.1,0.3c0,0.1-0.1,0.2-0.1,0.2
				s-0.1,0-0.2,0c-0.1,0-0.1-0.1-0.1-0.1c0-0.1,0-0.1,0-0.2c0.1-0.2,0.2-0.6,0.3-1C102.3,135.7,102.4,135.3,102.4,135 M104.7,133.9
				c0,0.1,0,0.3,0.1,0.6l0.1,0.8c0,0.2,0.1,0.4,0.1,0.7c0,0.3,0.1,0.5,0.1,0.6l0.1,0.5c0,0.1,0,0.2,0,0.3c0,0.1-0.1,0.1-0.1,0.1
				c-0.1,0-0.1,0-0.2-0.1c0,0-0.1-0.1-0.1-0.2c0-0.1,0-0.4-0.1-0.9c-0.1-0.5-0.1-0.8-0.1-1c0-0.1,0-0.4-0.1-0.7s-0.1-0.6-0.1-0.8
				c0-0.2,0-0.4-0.1-0.5c0-0.1,0-0.2,0-0.2s0.1-0.1,0.1-0.1c0.1,0,0.1,0,0.2,0.1c0,0,0,0.1,0,0.1c0,0.1,0,0.1,0,0.2
				C104.7,133.5,104.7,133.7,104.7,133.9 M106.1,131.8v8c0,0.1,0,0.2-0.1,0.2c-0.1,0-0.2,0-0.2-0.1c0,0-0.1-0.1-0.1-0.2v-8
				c0-0.1,0-0.1,0.1-0.2c0-0.1,0.1-0.1,0.1-0.1c0,0,0.1,0,0.1,0.1C106.1,131.7,106.1,131.7,106.1,131.8 M107,133.7l0.1,0.6l0.1,0.7
				c0.1,0.4,0.1,0.6,0.1,0.7l0.1,0.5c0,0.3,0.1,0.5,0.1,0.6c0,0.2,0,0.3,0,0.3c0,0.1-0.1,0.1-0.1,0.1c-0.1,0-0.1,0-0.2-0.1
				c0,0-0.1-0.1-0.1-0.2c0-0.1,0-0.3-0.1-0.6c0-0.3-0.1-0.7-0.2-1.2c-0.1-0.5-0.2-0.9-0.2-1.1c0-0.2-0.1-0.4-0.1-0.4l-0.1-0.4
				c0-0.1,0-0.2,0-0.2c0,0,0.1-0.1,0.1-0.1c0.1,0,0.1,0,0.2,0c0,0,0.1,0.1,0.1,0.2C106.9,133.4,106.9,133.5,107,133.7 M108,139.9
				v-8.2c0-0.1,0-0.1,0-0.2c0,0,0.1-0.1,0.1-0.1c0,0,0.1,0,0.1,0.1c0,0,0.1,0.1,0.1,0.2v8.2c0,0.1,0,0.1-0.1,0.1
				c0,0-0.1,0.1-0.1,0.1c0,0-0.1,0-0.1-0.1C108,140,108,140,108,139.9z M113,134.5c-0.1-0.2-0.2-0.4-0.3-0.5
				c-0.1-0.1-0.2-0.2-0.2-0.3c-0.1-0.1-0.1-0.1-0.1-0.2c0,0,0-0.1,0-0.2c0-0.1,0.1-0.1,0.2,0c0.1,0,0.2,0.2,0.4,0.5
				c0.2,0.3,0.4,0.6,0.5,0.8l0.1,0.3c0,0.1,0.1,0.2,0.1,0.2s0,0.1-0.1,0.1c0,0-0.1,0.1-0.2,0c0,0-0.1,0-0.1-0.1l-0.1-0.2l-0.1-0.2
				c-0.6,0.3-1.3,0.5-2,0.7c-0.7,0.2-1.1,0.3-1.2,0.3c-0.1,0-0.2-0.1-0.2-0.2c0,0,0-0.1,0-0.1c0,0,0-0.1,0-0.1v-2.5
				c0-0.3,0.1-0.6,0.2-0.7c0.1-0.1,0.2-0.2,0.3-0.2c0.1,0,0.4-0.1,0.9-0.1c0.5,0,0.9-0.1,1.2-0.1c0.3-0.1,0.5-0.2,0.7-0.2
				c0.2-0.1,0.3-0.1,0.4-0.1c0.1,0,0.1,0,0.1,0.1c0,0.1,0,0.1,0,0.2c0,0.1-0.2,0.2-0.5,0.3c-0.3,0.1-0.6,0.2-1.1,0.2
				c-0.4,0.1-0.8,0.1-1.2,0.1s-0.6,0-0.6,0.1c-0.1,0.1-0.1,0.2-0.1,0.4v2.5C111.3,135,112.2,134.8,113,134.5 M117.5,139.5
				c0,0.1,0,0.3-0.1,0.5c0,0.2-0.3,0.3-0.8,0.3h-5.3c-0.4,0-0.7-0.1-0.8-0.2c-0.1-0.1-0.2-0.3-0.2-0.6v-2.3c0-0.1,0-0.2,0-0.3
				c0-0.1,0.1-0.2,0.2-0.3c0.1-0.1,0.3-0.1,0.6-0.1h5.5c0.4,0,0.6,0.1,0.7,0.3c0.1,0.2,0.1,0.4,0.1,0.5V139.5 M113.7,139.9v-1.4h-3
				l0,0.9c0,0,0,0.1,0,0.2c0,0.1,0,0.1,0.1,0.2c0,0,0.2,0.1,0.4,0.1L113.7,139.9 M110.7,138.1h3l0-1.3h-2.5c-0.2,0-0.3,0-0.4,0.1
				c0,0-0.1,0.1-0.1,0.1c0,0.1,0,0.1,0,0.3L110.7,138.1 M114.1,139.9h2.6c0.2,0,0.3,0,0.3-0.1c0.1-0.1,0.1-0.2,0.1-0.3v-0.9h-3
				V139.9 M114.1,136.8v1.3h3v-0.9c0-0.2,0-0.3-0.1-0.4c-0.1-0.1-0.2-0.1-0.5-0.1H114.1 M115.8,132.4c0,0.2,0,0.4-0.1,0.6
				c0,0.2-0.1,0.5-0.2,0.8c-0.1,0.3-0.3,0.7-0.6,1c-0.3,0.3-0.6,0.6-1,0.9c-0.4,0.2-0.6,0.4-0.7,0.4c-0.1,0-0.1,0-0.2-0.1
				c0-0.1,0-0.1,0-0.2c0,0,0.2-0.1,0.4-0.2c0.3-0.1,0.6-0.4,0.8-0.7c0.3-0.3,0.5-0.6,0.6-0.8c0.1-0.2,0.2-0.4,0.2-0.7
				c0.1-0.2,0.1-0.4,0.1-0.6l0-0.4h-1.3c-0.1,0-0.1,0-0.2-0.1c0,0-0.1-0.1-0.1-0.1c0,0,0-0.1,0.1-0.1c0,0,0.1-0.1,0.2-0.1h3
				c0.4,0,0.7,0.1,0.7,0.3c0.1,0.2,0.1,0.3,0.1,0.5v1.3c0,0.2,0,0.3,0,0.5c0,0.2-0.1,0.4-0.2,0.6c-0.1,0.3-0.4,0.4-0.9,0.4
				c-0.1,0-0.3,0-0.6-0.1c-0.3,0-0.4-0.1-0.5-0.1c-0.1,0-0.1-0.1-0.2-0.1c0,0,0-0.1,0-0.2c0-0.1,0.1-0.1,0.2-0.1l0.4,0.1
				c0.2,0.1,0.5,0.1,0.7,0.1c0.1,0,0.3,0,0.4-0.1c0.1-0.1,0.2-0.2,0.2-0.4c0-0.2,0-0.4,0-0.6v-1.4c0-0.1,0-0.2-0.1-0.2
				c0-0.1-0.2-0.1-0.4-0.1H115.8z M123.8,137.2h3.8c0.1,0,0.2,0,0.2,0.1c0,0.1,0,0.1-0.1,0.2c0,0-0.1,0.1-0.1,0.1H124
				c0.1,0.3,0.2,0.6,0.3,0.8c0,0.2,0.1,0.4,0.1,0.7c0,0.2-0.1,0.4-0.1,0.6c-0.1,0.1-0.2,0.3-0.4,0.5c-0.2,0.2-0.5,0.3-0.9,0.3
				c-0.2,0-0.4,0-0.7,0c-0.3,0-0.5-0.1-0.6-0.2s-0.2-0.1-0.2-0.2c0-0.1,0-0.1,0-0.2c0,0,0.1-0.1,0.2-0.1c0,0,0.2,0.1,0.4,0.1
				c0.2,0.1,0.5,0.1,0.8,0.1c0.3,0,0.6-0.1,0.8-0.2c0.2-0.2,0.3-0.4,0.3-0.6c0-0.2,0-0.4,0-0.6c0-0.3-0.2-0.6-0.4-1h-4.3
				c-0.1,0-0.2-0.1-0.2-0.2c0-0.1,0.1-0.2,0.2-0.2h4.1c-0.1-0.1-0.2-0.3-0.3-0.3c-0.1-0.1-0.1-0.1-0.1-0.2c0,0,0-0.1,0-0.1
				c0,0,0.1-0.1,0.2-0.1c0.1,0,0.4-0.2,0.8-0.4s0.8-0.4,1.1-0.5c0.3-0.1,0.4-0.2,0.4-0.3c0-0.1,0-0.1,0-0.1c0,0-0.2,0-0.4,0h-4.4
				c-0.1,0-0.1,0-0.1-0.1c0,0-0.1-0.1,0-0.1c0-0.1,0.1-0.2,0.2-0.2h4.5c0.4,0,0.7,0,0.9,0.1c0.2,0,0.2,0.2,0,0.5
				c-0.1,0.1-0.3,0.3-0.6,0.5c-0.3,0.2-0.6,0.4-1,0.5c-0.4,0.2-0.6,0.3-0.8,0.4s-0.2,0.1-0.2,0.1C123.5,136.9,123.6,137,123.8,137.2
				 M125.8,133.4h0.9c0.3,0,0.5,0,0.6,0.1c0.1,0.1,0.2,0.2,0.2,0.4c0,0.2,0,0.3,0,0.4c0,0.1,0,0.3-0.1,0.5c0,0.2-0.1,0.4-0.1,0.6
				c-0.1,0.2-0.1,0.3-0.2,0.3c-0.1,0.1-0.1,0.1-0.2,0c-0.1,0-0.1-0.1-0.1-0.1c0-0.1,0-0.2,0.1-0.3c0.1-0.2,0.1-0.4,0.2-0.6
				c0-0.2,0.1-0.4,0.1-0.5c0-0.1,0-0.2-0.1-0.3c-0.1-0.1-0.3-0.1-0.6-0.1h-6.1c-0.2,0-0.4,0-0.5,0.1c-0.1,0-0.1,0.1-0.1,0.2
				s0,0.1,0,0.2v1.3c0,0,0,0.1-0.1,0.2c-0.1,0.1-0.1,0.1-0.2,0c-0.1-0.1-0.1-0.1-0.1-0.2v-1.3c0-0.1,0-0.3,0.1-0.5
				c0.1-0.2,0.4-0.3,0.8-0.3h4.9c0.2-0.3,0.4-0.5,0.5-0.8c0.2-0.3,0.3-0.5,0.4-0.7c0.1-0.2,0.2-0.3,0.2-0.4c0.1-0.1,0.1-0.1,0.2,0
				c0.1,0.1,0.1,0.2,0,0.4s-0.3,0.5-0.5,0.9C125.9,133.1,125.8,133.3,125.8,133.4 M120.1,131.8c0-0.1,0-0.1,0-0.2
				c0,0,0.1-0.1,0.2-0.1c0.1,0,0.2,0.1,0.4,0.3c0.2,0.2,0.4,0.4,0.5,0.6c0.2,0.2,0.3,0.4,0.3,0.4c0,0,0,0.1,0,0.2
				c0,0.1-0.1,0.1-0.3,0c0,0-0.1-0.1-0.2-0.3c-0.1-0.2-0.2-0.3-0.3-0.5c-0.1-0.1-0.3-0.3-0.4-0.4
				C120.1,131.9,120.1,131.9,120.1,131.8 M124.1,133c0,0.1,0,0.1-0.1,0.2c0,0-0.1,0.1-0.2,0c0,0-0.1,0-0.1-0.1c0,0-0.1-0.1-0.1-0.2
				s-0.1-0.2-0.2-0.4c-0.1-0.2-0.2-0.3-0.3-0.5s-0.2-0.2-0.2-0.3c0-0.1,0-0.2,0.2-0.2c0.1,0,0.2,0.1,0.3,0.2
				c0.1,0.1,0.3,0.4,0.4,0.7C124,132.7,124.1,132.9,124.1,133L124.1,133z"/>
			<g id="XMLID_2075_">
				<path id="XMLID_2083_" class="st1" d="M79.3,94.9c0-11.3,9.1-20.4,20.4-20.4c11.3,0,20.4,9.1,20.4,20.4"/>
				<path id="XMLID_2082_" class="st1" d="M134.8,92.9c0-1.1-0.9-2-2-2h-7.5c-1.1,0-2,0.9-2,2l0,0c0,1.1,0.9,2,2,2h7.5
					C133.9,94.9,134.8,94,134.8,92.9z"/>
				<path id="XMLID_2081_" class="st1" d="M129.4,76.2c-0.5-1-1.8-1.3-2.7-0.8l-6.5,3.6c-1,0.5-1.3,1.7-0.8,2.7v0
					c0.5,1,1.8,1.3,2.7,0.8l6.5-3.6C129.6,78.4,129.9,77.2,129.4,76.2z"/>
				<path id="XMLID_2080_" class="st1" d="M116.6,64.2c-0.9-0.6-2.2-0.3-2.7,0.6l-4,6.3c-0.6,0.9-0.3,2.2,0.6,2.7l0,0
					c0.9,0.6,2.2,0.3,2.7-0.6l4-6.3C117.8,66,117.5,64.8,116.6,64.2z"/>
				<path id="XMLID_2079_" class="st1" d="M64.7,92.9c0-1.1,0.9-2,2-2h7.5c1.1,0,2,0.9,2,2l0,0c0,1.1-0.9,2-2,2h-7.5
					C65.6,94.9,64.7,94,64.7,92.9z"/>
				<path id="XMLID_2078_" class="st1" d="M99.7,59.6c1.1,0,2,0.9,2,2V69c0,1.1-0.9,2-2,2l0,0c-1.1,0-2-0.9-2-2v-7.5
					C97.8,60.5,98.7,59.6,99.7,59.6z"/>
				<path id="XMLID_2077_" class="st1" d="M70.1,76.2c0.5-1,1.7-1.3,2.7-0.8l6.5,3.6c1,0.5,1.3,1.7,0.8,2.7v0
					c-0.5,1-1.8,1.3-2.7,0.8l-6.5-3.6C69.9,78.4,69.6,77.2,70.1,76.2z"/>
				<path id="XMLID_2076_" class="st1" d="M82.9,64.2c0.9-0.6,2.2-0.3,2.7,0.6l4,6.3c0.6,0.9,0.3,2.2-0.6,2.7l0,0
					c-0.9,0.6-2.2,0.3-2.7-0.6l-4-6.3C81.7,66,82,64.8,82.9,64.2z"/>
			</g>
		</g>
	</g>
</g>
</svg>
