<?xml version="1.0" encoding="utf-8"?>
<!-- Generator: Adobe Illustrator 19.0.0, SVG Export Plug-In . SVG Version: 6.00 Build 0)  -->
<svg version="1.1" id="圖層_1" xmlns="http://www.w3.org/2000/svg" xmlns:xlink="http://www.w3.org/1999/xlink" x="0px" y="0px"
	 width="200px" height="200px" viewBox="0 0 200 200" style="enable-background:new 0 0 200 200;" xml:space="preserve">
<style type="text/css">
	.st0{fill:#463085;}
	.st1{fill:#FFFFFF;}
</style>
<g id="XMLID_2465_">
	<rect id="XMLID_2236_" class="st0" width="200" height="200"/>
	<g id="XMLID_2469_">
		<g id="XMLID_2470_">
			<path id="XMLID_2516_" class="st1" d="M32.9,114.2c0-1.6-1.2-2.4-3.8-2.4h-5.4L20,127.7h3.9l1.5-6.7H26l1.1,6.7h3.9l-1.4-7
				c1-0.3,1.7-0.8,2.1-1.5c0.3-0.6,0.7-1.5,0.9-2.6C32.8,115.5,32.9,114.7,32.9,114.2L32.9,114.2z M29.2,115.2
				c0,0.3-0.1,0.6-0.2,1.2c-0.1,0.6-0.2,0.8-0.3,1.1c-0.3,0.5-0.7,0.7-1.5,0.7h-1.2l0.9-3.7h1.3C28.9,114.5,29.2,114.7,29.2,115.2
				L29.2,115.2z M45.9,111.8h-3.8l-2.6,11.3c-0.2,0.9-0.5,1.8-1.6,1.8c-0.6,0-1.2-0.3-1.2-0.9c0-0.3,0-0.6,0.1-0.9l2.6-11.3h-3.9
				l-2.2,9.3c-0.3,1.1-0.6,2.2-0.6,3.4c0,2.7,2.4,3.5,4.7,3.5c2.2,0,4.1-0.6,5-2.7c0.3-0.7,0.5-1.4,0.7-2.1L45.9,111.8z M56.7,111.8
				h-6.2l-6.8,15.9h4.1l1.4-3.5h2.9l-0.3,3.5h3.8L56.7,111.8z M53,113.2l-0.7,8.2h-2.2L53,113.2z M70.7,111.8h-3.5
				c-0.7,3.3-1.4,6.5-1.9,9.9c-0.3-3.3-0.7-6.6-1.1-9.9h-3.7l-3.7,15.9h3.6l1.9-9.8c0.3,3.3,0.7,6.5,1.1,9.8H67L70.7,111.8z
				 M88.9,111.8h-3.5c-0.7,3.3-1.4,6.5-1.9,9.9c-0.3-3.3-0.7-6.6-1.1-9.9h-3.7l-3.7,15.9h3.6l1.9-9.8c0.3,3.3,0.7,6.5,1.1,9.8h3.7
				L88.9,111.8z M99.2,111.8h-8l-3.7,15.9h8.4l0.6-2.8H92l0.9-4.1h3.9l0.6-2.7h-3.9l0.8-3.6h4.1L99.2,111.8z M118.2,111.8h-3.8
				l-2.7,8.2c-0.4,1.3-0.8,2.6-1.1,4l0.7-12.2h-4.6l-4.1,10.2c-0.3,0.7-0.5,1.4-0.8,2.2c0.5-2.3,0.8-4.6,1.1-6.9l0.8-5.5h-3.8
				l-1.4,15.9h4.9l2.3-5.5c0.9-2.1,1.7-4.2,2.4-6.3c-0.3,3.9-0.4,7.9-0.6,11.9h4.8L118.2,111.8z M134.4,114.4c0-2.5-2.4-2.6-4.3-2.6
				H125l-3.7,15.9h6.8c1.5,0,3.1-0.2,3.8-1.8c0.4-0.9,1.1-3.8,1.1-4.7c0-1.2-0.9-1.7-1.9-2c1-0.2,1.9-0.4,2.5-1.3
				C134,117.2,134.4,115.1,134.4,114.4L134.4,114.4z M130.7,115.4c0,0.5-0.2,1-0.3,1.5c-0.3,1-0.7,1.2-1.7,1.2h-1.4l0.8-3.5h1.5
				C130.2,114.6,130.7,114.7,130.7,115.4L130.7,115.4z M129.3,121.6c0,0.6-0.2,1.2-0.4,1.8c-0.2,0.9-0.4,1.5-1.5,1.5h-1.7l0.9-4.1
				h1.5C128.8,120.8,129.3,120.9,129.3,121.6z M142.1,125H138l3-13.2h-3.9l-3.7,15.9h7.9L142.1,125z M155.4,114.9
				c0-2.8-2.5-3.4-4.8-3.4c-2,0-4,0.4-5,2.5c-0.4,0.7-0.5,1.6-0.7,2.3l-1.5,6.1c-0.2,0.7-0.2,1.3-0.2,2c0,2.8,2.3,3.6,4.7,3.6
				c1.8,0,3.8-0.3,4.8-2c0.4-0.7,0.6-1.4,0.8-2.2l1.3-5.4C155.1,117.3,155.4,116.1,155.4,114.9L155.4,114.9z M151.6,115.3
				c0,0.6-0.2,1.3-0.4,1.9c-0.2,1-0.5,2-0.7,3c-0.2,0.7-0.4,1.5-0.6,2.2c-0.2,1-0.4,2.6-1.8,2.6c-0.6,0-1.2-0.2-1.2-0.9
				c0-0.5,0.2-1.1,0.3-1.6c0.4-1.5,0.7-2.9,1.1-4.4c0.3-1,0.5-1.9,0.8-2.9c0.2-0.7,0.6-1,1.4-1C151.2,114.4,151.6,114.7,151.6,115.3
				L151.6,115.3z M167.6,114.9c0-2.8-2.5-3.4-4.8-3.4c-2,0-4,0.4-5,2.5c-0.4,0.7-0.5,1.6-0.7,2.3l-1.5,6.1c-0.2,0.7-0.3,1.3-0.3,2
				c0,2.8,2.3,3.6,4.8,3.6c1.8,0,3.8-0.3,4.8-2c0.4-0.7,0.6-1.4,0.8-2.2l1.3-5.4C167.3,117.3,167.6,116.1,167.6,114.9L167.6,114.9z
				 M163.8,115.3c0,0.6-0.2,1.3-0.4,1.9c-0.2,1-0.5,2-0.7,3c-0.2,0.7-0.4,1.5-0.6,2.2c-0.2,1-0.4,2.6-1.8,2.6
				c-0.6,0-1.2-0.2-1.2-0.9c0-0.5,0.2-1.1,0.3-1.6c0.4-1.5,0.7-2.9,1.1-4.4c0.3-1,0.5-1.9,0.8-2.9c0.2-0.7,0.6-1,1.4-1
				C163.4,114.4,163.8,114.7,163.8,115.3L163.8,115.3z M180,114.5c0-2.5-2.1-2.7-4.1-2.7h-5.4l-3.7,15.9h6.8c3.2,0,3.7-0.9,4.4-3.9
				l1.8-7.8C179.9,115.5,180,115,180,114.5L180,114.5z M176.1,115.3c0,0.2,0,0.3,0,0.5l-1.8,7.7c-0.3,1.3-0.7,1.6-2,1.6h-1l2.4-10.5
				h1.3C175.7,114.5,176.1,114.6,176.1,115.3L176.1,115.3z"/>
			<path id="XMLID_2484_" class="st1" d="M63.6,144.8H65v-7.8h1.4v8.3c0,0.1,0,0.2-0.1,0.2c0,0.1-0.1,0.1-0.2,0.2
				c-0.1,0.1-0.1,0.1-0.2,0.1c-0.1,0-0.2,0-0.2,0h-2.1V144.8 M68.9,138.8l1.1,5.9h-1.4l-1.1-5.9H68.9 M64,138.8l-1.1,5.9h-1.4
				l1.1-5.9H64z M71.4,143h3.4v-0.7h-1.2v-0.6l-0.8,0.7c-0.1,0.1-0.2,0.1-0.2,0.1c-0.1,0-0.2,0-0.3,0h-1l-0.1-1.1h0.7l0.3-0.2h-0.6
				l-0.3-0.9h1.3l0.2,0.5l0.8-0.7h-2.2l-0.2-1.1h3c0.2,0,0.3,0,0.5,0.1c0.2,0.1,0.3,0.2,0.3,0.4v0.8c0,0.1,0,0.1,0,0.2
				c0,0.1-0.1,0.1-0.1,0.2l-0.6,0.5h2.7l-1.5-1.7l1.2-0.7l0.3,0.3l2.6-0.1l0.1,1l-1.8,0.1l0.2,0.2l1.8-0.1l0.1,1l-1,0l0.2,0.2h0.9
				l-0.1,1.1h-1.2c-0.1,0-0.2,0-0.3-0.1c-0.1,0-0.2-0.1-0.2-0.1l-0.6-0.7v0.6h-1.2v0.7h3.3v1.1h-2.4l1.1,0.7h1.5l-0.1,1.2h-1.7
				c-0.2,0-0.3,0-0.4-0.1l-1.9-1.3l-1.9,1.3c-0.1,0.1-0.1,0.1-0.2,0.1c-0.1,0-0.2,0-0.2,0h-1.7l-0.1-1.2h1.5l1.1-0.7h-2.5L71.4,143
				 M76.8,138.8v-0.4h-2.7v0.4h-1.4v-0.4h-1.6v-1.1h1.6V137h1.4v0.4h2.7V137h1.4v0.4h1.6v1.1h-1.6v0.4H76.8z M83.6,142.1l2.3-0.3
				v-1.9h1.4v1.7l2.3-0.3l0.1,1.1l-2.5,0.3v2h2.4v1.2h-3.1c-0.1,0-0.2,0-0.2,0c-0.1,0-0.2-0.1-0.2-0.1c-0.1,0-0.1-0.1-0.2-0.2
				c0-0.1-0.1-0.2-0.1-0.2V143l-2.1,0.3L83.6,142.1 M86.6,139.7v-0.7h-2.5v0.7h-1.4v-0.7H81v-1.2h1.6V137h1.4v0.7h2.5V137h1.4v0.7
				h1.6v1.2h-1.6v0.7H86.6 M83.2,141.8v4.1h-1.4v-3h-1l1.5-3.1h1.4l-0.9,1.9L83.2,141.8z M90.5,145.9v-8.3c0-0.1,0-0.2,0.1-0.3
				c0-0.1,0.1-0.1,0.2-0.2c0.1-0.1,0.2-0.1,0.2-0.1s0.2,0,0.3,0h2.1c0.2,0,0.4,0.1,0.5,0.2c0.1,0.1,0.2,0.3,0.2,0.4l-0.5,2.7
				c0.1,0,0.2,0.1,0.3,0.2c0.1,0.1,0.1,0.2,0.1,0.3l-0.5,4.1l-1.3-0.1l0.4-3.5c-0.1,0-0.2-0.1-0.3-0.2c-0.1-0.1-0.1-0.2-0.1-0.3
				c0,0,0,0,0,0s0,0,0,0l0.5-2.7l-0.7,0v7.8L90.5,145.9 M99.4,146h-1.5c-0.2,0-0.3,0-0.4-0.1c-0.1-0.1-0.2-0.2-0.2-0.4v-4h-1l-0.2,4
				c0,0.2-0.1,0.3-0.2,0.4c-0.1,0.1-0.3,0.1-0.4,0.1h-1.4l-0.1-1.2h0.7l0.2-3.4h-0.7v-1.2h5.3v1.2h-0.8v3.4h0.8L99.4,146
				 M94.4,137.3h4.9v1.2h-4.9V137.3z M106.3,142.7v1.9c0,0.1,0,0.2-0.1,0.3h0.9v-2.5h-6.6v-1.2h8.6v1.2h-0.6v2.9
				c0,0.2-0.1,0.4-0.2,0.6c-0.2,0.1-0.3,0.2-0.6,0.2h-1.6l-0.1-0.9c-0.1,0.1-0.3,0.1-0.4,0.1h-4.5v-1.8c0-0.1,0-0.2,0.1-0.3
				c0.1-0.1,0.1-0.1,0.2-0.2c0.1-0.1,0.2-0.1,0.3-0.1c0.1,0,0.2,0,0.3,0L106.3,142.7 M107.1,140.9v-2.7h-6.6v-1.2h8.6v1.2h-0.6v2.7
				H107.1 M106.3,138.5v1.8c0,0.1,0,0.2-0.1,0.3c0,0.1-0.1,0.1-0.2,0.2c-0.1,0-0.2,0.1-0.2,0.1c-0.1,0-0.2,0-0.3,0v0h-4.6v-1.8
				c0-0.1,0-0.2,0.1-0.2c0-0.1,0.1-0.1,0.2-0.2c0.1-0.1,0.1-0.1,0.2-0.1c0.1,0,0.2,0,0.3,0L106.3,138.5 M102.3,143.7v0.4h2.8v-0.4
				H102.3 M102.3,139.5v0.4h2.8v-0.4H102.3z M116.1,142.7v1.9c0,0.1,0,0.2-0.1,0.3h0.9v-2.5h-6.6v-1.2h8.6v1.2h-0.6v2.9
				c0,0.2-0.1,0.4-0.2,0.6c-0.2,0.1-0.3,0.2-0.6,0.2h-1.6l-0.1-0.9c-0.1,0.1-0.3,0.1-0.4,0.1h-4.5v-1.8c0-0.1,0-0.2,0.1-0.3
				c0.1-0.1,0.1-0.1,0.2-0.2c0.1-0.1,0.2-0.1,0.3-0.1c0.1,0,0.2,0,0.3,0L116.1,142.7 M116.8,140.9v-2.7h-6.6v-1.2h8.6v1.2h-0.6v2.7
				H116.8 M116.1,138.5v1.8c0,0.1,0,0.2-0.1,0.3c0,0.1-0.1,0.1-0.2,0.2c-0.1,0-0.2,0.1-0.2,0.1c-0.1,0-0.2,0-0.3,0v0h-4.6v-1.8
				c0-0.1,0-0.2,0.1-0.2c0-0.1,0.1-0.1,0.2-0.2c0.1-0.1,0.1-0.1,0.2-0.1c0.1,0,0.2,0,0.3,0L116.1,138.5 M112.1,143.7v0.4h2.8v-0.4
				H112.1 M112.1,139.5v0.4h2.8v-0.4H112.1z M127.4,146l-0.5-2.7h-0.5v2.7H125v-2.7h-0.5l-0.5,2.7h-1.3l0.5-2.7h-0.6v-1.2h2.4v-0.5
				h-2.3v-4c0-0.1,0-0.2,0.1-0.3c0-0.1,0.1-0.2,0.2-0.2c0.1-0.1,0.2-0.1,0.3-0.1c0.1,0,0.2,0,0.3,0h5.3v4c0,0.1,0,0.2-0.1,0.3
				c0,0.1-0.1,0.1-0.2,0.2c-0.1,0.1-0.2,0.1-0.3,0.1c-0.1,0-0.2,0-0.3,0h-1.5v0.5h2.4v1.2h-0.6l0.5,2.7L127.4,146 M122.5,146h-1.2
				c-0.1,0-0.2,0-0.3,0s-0.2-0.1-0.3-0.1c-0.1-0.1-0.1-0.1-0.2-0.2c0-0.1-0.1-0.2-0.1-0.3v-4.9h-0.6v-1.2h2.1v5.6h0.6V146
				 M120.6,138.7l-0.2-1.7h1.4l0.2,1.7H120.6 M127.3,140.6v-0.6h-0.9v0.6H127.3 M127.3,138.2h-0.9v0.6h0.9V138.2 M124.1,138.2v0.6
				h0.9v-0.6H124.1 M124.1,140.6h0.9v-0.6h-0.9V140.6z M131.9,137.1l0.3,1.1h1.3V137h1.4v1.2h1.2l0.3-1.1h1.5l-0.3,1.1h1.1v2.1h-0.9
				v1.7c0,0.1,0,0.2-0.1,0.2c0,0.1-0.1,0.1-0.2,0.2c-0.1,0-0.1,0.1-0.2,0.1c-0.1,0-0.2,0-0.2,0v0h-2.1v0.5h3.3v1.1h-3.3v0.6h3.7v1.1
				h-8.8v-1.1h3.7v-0.6h-3.3v-1.1h3.3v-0.5h-2.8v-2.3v0h-0.9v-1.5c0-0.1,0-0.2,0.1-0.3c0-0.1,0.1-0.1,0.2-0.2
				c0.1-0.1,0.1-0.1,0.2-0.1c0.1,0,0.2,0,0.3,0h0.3l-0.3-1.1H131.9 M131.9,140.8v0.8h4.4v-0.8H131.9 M137.3,139.2H131v0.6
				c0.1,0,0.2,0,0.3,0h5.9V139.2z"/>
			<g id="XMLID_2471_">
				<path id="XMLID_2480_" class="st1" d="M134.9,67.1c-0.2,1.4-0.8,2.8-1.9,4.3c-1.7,2.3-4.6,4.9-8.8,7.7c-2,1.3-4.6,2.9-7.9,4.7
					c3.4,1.5,6.3,3.3,8.6,5.4c1.3,1.2,2.8,2.8,4.4,4.8c0.6,0.7,1.5,1.7,2.8,3c0.1,0.1,0.3,0.2,0.6,0.3c1.1,0.3,1.7,0.8,1.7,1.3
					s-0.6,1-1.9,1.3c-1.4,0.4-2.9,0.6-4.5,0.6c-1.6,0-3-0.2-4.3-0.6c-2.2-0.7-4.2-2.1-5.9-4.2c-1.5-1.8-2.6-3.1-3.3-3.8
					c-1.3-1.4-2.5-2.5-3.7-3.3l-0.4-0.3l-0.1-0.1c0.2,2.3,0.3,4.2,0.3,5.7c0,0.5-0.6,0.9-1.9,1.3c-1.2,0.4-2.7,0.5-4.4,0.5
					c-1.7,0-3.2-0.2-4.4-0.5c-1.2-0.4-1.8-0.8-1.8-1.3c0-1.9-0.1-5.1-0.4-9.7c-0.3-4.2-0.4-7.4-0.3-9.8c0.2-7.1,1.4-12.2,3.6-15.4
					c1.5-2.2,3.6-3.6,6.3-4.2c2.3-0.6,4.5-0.8,6.8-0.8c5.7,0,10.8,1.5,15.3,4.5c2.3,1.5,3.8,3,4.5,4.3
					C134.8,64.3,135.1,65.7,134.9,67.1 M122.1,64.1c-0.6-1.3-1.7-2.4-3.2-3.5l-0.1-0.1l-0.1-0.1c-1.4-0.9-2.7-1.6-4-2.1
					c-1.3,1.2-2.3,2.7-3,4.7c-1.3,3.8-1.8,9.3-1.7,16.4c1.8-1.1,3.3-2,4.3-2.8l0.5-0.3l0.6-0.4c1.4-1,2.6-2,3.6-3.1
					c1.4-1.5,2.4-2.8,2.9-4C122.6,67.2,122.7,65.7,122.1,64.1L122.1,64.1z"/>
				<path id="XMLID_2473_" class="st1" d="M65.1,67.1c0.2,1.4,0.8,2.8,1.8,4.3c1.7,2.3,4.6,4.9,8.8,7.7c2,1.3,4.6,2.9,7.9,4.7
					c-3.4,1.5-6.3,3.3-8.6,5.4c-1.3,1.2-2.8,2.8-4.4,4.8c-0.6,0.7-1.5,1.7-2.8,3c-0.1,0.1-0.3,0.2-0.6,0.3c-1.2,0.3-1.7,0.8-1.7,1.3
					s0.6,1,1.8,1.3c1.4,0.4,2.9,0.6,4.5,0.6c1.6,0,3-0.2,4.3-0.6c2.2-0.7,4.2-2.1,5.9-4.2c1.5-1.8,2.6-3.1,3.3-3.8
					c1.3-1.4,2.5-2.5,3.7-3.3l0.4-0.3l0.1-0.1c-0.2,2.3-0.3,4.2-0.3,5.7c0,0.5,0.6,0.9,1.9,1.3c1.2,0.4,2.7,0.5,4.4,0.5
					c1.7,0,3.2-0.2,4.4-0.5c1.2-0.4,1.8-0.8,1.8-1.3c0-1.9,0.1-5.1,0.4-9.7c0.3-4.2,0.4-7.4,0.3-9.8c-0.2-7.1-1.4-12.2-3.6-15.4
					c-1.5-2.2-3.6-3.6-6.3-4.2c-2.3-0.6-4.5-0.8-6.8-0.8c-5.7,0-10.8,1.5-15.3,4.5c-2.3,1.5-3.8,3-4.5,4.3
					C65.2,64.3,64.9,65.7,65.1,67.1 M77.9,64.1c0.6-1.3,1.7-2.4,3.2-3.5l0.1-0.1l0.1-0.1c1.4-0.9,2.7-1.6,4-2.1
					c1.3,1.2,2.3,2.7,3,4.7c1.3,3.8,1.8,9.3,1.7,16.4c-1.8-1.1-3.3-2-4.3-2.8l-0.5-0.3l-0.6-0.4c-1.4-1-2.6-2-3.6-3.1
					c-1.4-1.5-2.4-2.8-2.9-4C77.3,67.2,77.3,65.7,77.9,64.1z"/>
			</g>
		</g>
	</g>
</g>
</svg>
