<?xml version="1.0" encoding="utf-8"?>
<!-- Generator: Adobe Illustrator 19.0.0, SVG Export Plug-In . SVG Version: 6.00 Build 0)  -->
<svg version="1.1" id="圖層_1" xmlns="http://www.w3.org/2000/svg" xmlns:xlink="http://www.w3.org/1999/xlink" x="0px" y="0px"
	 width="200px" height="200px" viewBox="0 0 200 200" style="enable-background:new 0 0 200 200;" xml:space="preserve">
<style type="text/css">
	.st0{fill:url(#XMLID_118_);}
	.st1{fill:#FFFFFF;}
</style>
<g id="XMLID_2538_">
	<linearGradient id="XMLID_118_" gradientUnits="userSpaceOnUse" x1="-4.715" y1="5.2087" x2="204.715" y2="194.7913">
		<stop  offset="0" style="stop-color:#DD2476"/>
		<stop  offset="1" style="stop-color:#FF512F"/>
	</linearGradient>
	<rect id="XMLID_1727_" class="st0" width="200" height="200"/>
	<g id="XMLID_1728_">
		<g id="XMLID_1729_">
			<g id="XMLID_2512_">
				<path id="XMLID_2533_" class="st1" d="M53,142.5H42.7v-18H53v-1.4H41.3v20.7H53V142.5z M38.1,140.2l-1.8,2.4l1.1,0.8l1.8-2.4
					L38.1,140.2z M39.1,125.1l-1.8-2.5l-1.1,0.8l1.8,2.4L39.1,125.1z M39.1,133.9l-1.8-2.4l-1.1,0.8l1.8,2.4L39.1,133.9z"/>
				<path id="XMLID_2525_" class="st1" d="M74.9,134.1v9.6h13.4v-9.6H74.9z M87,135.5v6.8H76.3v-6.8H87z M89.5,124h-7.1v-2.4h-1.4
					v2.4h-7.1v1.4h15.6L89.5,124z M90.2,130.4H73.1v1.4h17.1L90.2,130.4z M83.1,139.8l-2.1-2.7l-1.1,0.8l2.1,2.7L83.1,139.8z
					 M79,128.4l-1.8-2.4l-1.1,0.8l1.8,2.4L79,128.4z M85.4,129.3l1.8-2.4l-1.1-0.8l-1.8,2.4L85.4,129.3z"/>
				<path id="XMLID_2521_" class="st1" d="M123,143.8h3.3v-21.5H111V144h1.4v-20.3h12.6v18.7h-2V143.8z M118.8,126.9l2,5.9l-2.2,7
					l1.3,0.4l1.6-5.1l1.3,3.9l1.3-0.4l-1.9-5.6l1.9-6l-1.3-0.4l-1.3,4.2l-1.4-4.1L118.8,126.9z M113.2,127l2,5.8l-2,6.6l1.3,0.4
					l1.4-4.7l0.9,2.5l1.3-0.5l-1.4-4.3l1.7-5.6l-1.3-0.4l-1.1,3.7l-1.3-4L113.2,127z"/>
				<path id="XMLID_2513_" class="st1" d="M154.2,135.5v8.3h8.2v-8.3H154.2z M154.9,121.6v2.1l-1.9,3.7l1.2,0.6l0.7-1.3l2.3,2.3
					l-4.4,4.4l1,1l4.4-4.4l4.5,4.4l1-1l-4.5-4.4l3.4-3.4v-2.4h-6.3v-1.6L154.9,121.6z M152.7,136.7h-3.8v-0.1l3.9-8.7l-1.2-0.6
					l-0.8,1.8h-1.9v-0.1l2.6-6.5l-1.3-0.5l-2.7,6.7v1.8h2.6l-2.6,5.8v1.7h5.2V136.7z M161,136.9v5.5h-5.5v-5.5H161z M158.2,128.1
					l-2.6-2.6l0.5-0.9h5.2v0.5L158.2,128.1z M153.2,141.6h-5.5v1.4h5.5V141.6z"/>
			</g>
			<g id="XMLID_2220_">
				<path id="XMLID_2507_" class="st1" d="M38.3,153.1c0,0.1,0,0.1-0.1,0.2c0,0.1-0.1,0.1-0.2,0c0,0-0.1-0.1-0.3-0.2
					c-0.1-0.1-0.3-0.3-0.5-0.4c-0.2-0.2-0.4-0.3-0.6-0.4c-0.2-0.1-0.3-0.2-0.4-0.2c0,0-0.1,0-0.1-0.1c0,0,0-0.1,0-0.2
					c0-0.1,0.1-0.1,0.2-0.1c0.1,0,0.3,0.1,0.7,0.3c0.4,0.2,0.6,0.4,0.8,0.7C38.2,152.9,38.3,153,38.3,153.1 M38.1,154.1
					c0.1,0,0.2,0,0.2,0.1c0,0.1,0,0.1,0,0.2c0,0.1-0.1,0.2-0.1,0.4l-0.2,0.4c-0.1,0.3-0.4,0.8-0.6,1.3c-0.3,0.5-0.5,0.8-0.6,0.9
					c-0.1,0.1-0.2,0.1-0.3,0c-0.1,0-0.1-0.1-0.1-0.2c0,0,0.1-0.2,0.2-0.3c0.1-0.2,0.3-0.4,0.4-0.6c0.2-0.2,0.3-0.5,0.5-0.9
					c0.2-0.4,0.3-0.6,0.3-0.8l0.1-0.3C37.9,154.2,38,154.1,38.1,154.1 M36.6,149.5c0-0.1,0.1-0.2,0.2-0.2c0.1,0,0.2,0.1,0.5,0.2
					c0.2,0.1,0.5,0.4,0.9,0.7c0.3,0.3,0.5,0.5,0.4,0.6c-0.1,0.1-0.2,0.1-0.2,0.1c0,0-0.1,0-0.1,0s-0.1-0.1-0.2-0.2
					c-0.1-0.1-0.2-0.2-0.4-0.3c-0.1-0.1-0.3-0.2-0.4-0.3c-0.1-0.1-0.3-0.2-0.4-0.3C36.7,149.7,36.6,149.6,36.6,149.5 M39.1,150.3
					c0-0.1,0-0.3,0.1-0.4c0.1-0.1,0.3-0.2,0.6-0.2l4.4,0c0,0,0.1,0,0.1,0.1c0,0,0.1,0.1,0.1,0.1c0,0,0,0.1-0.1,0.1c0,0-0.1,0-0.1,0
					h-4.4c-0.2,0-0.4,0.1-0.4,0.3v6c0,0.1,0,0.2,0.1,0.2c0,0.1,0.2,0.1,0.4,0.1h4.5c0.1,0,0.2,0.1,0.2,0.2c0,0,0,0.1-0.1,0.1
					c0,0-0.1,0.1-0.1,0.1h-4.5c-0.4,0-0.6-0.1-0.7-0.2c-0.1-0.2-0.1-0.3-0.1-0.4L39.1,150.3z"/>
				<path id="XMLID_2498_" class="st1" d="M83,151.5c0.3,0.2,0.6,0.5,0.9,0.8c0.3,0.3,0.4,0.5,0.3,0.6c-0.1,0.1-0.2,0.1-0.3,0.1
					c0,0-0.1,0-0.1-0.1c0,0-0.1-0.1-0.2-0.2c-0.1-0.1-0.3-0.3-0.5-0.5l-0.4-0.3l-0.1-0.1c0,0-0.1,0.1-0.3,0.3
					c-0.2,0.2-0.3,0.3-0.5,0.4s-0.3,0.2-0.5,0.3c-0.2,0.1-0.4,0.2-0.5,0.3c-0.1,0.1-0.2,0.1-0.3,0.1c-0.1,0-0.2,0.1-0.2,0.1
					c0,0-0.1,0-0.1-0.1c0,0-0.1-0.1,0-0.1s0-0.1,0.1-0.1c0,0,0.1-0.1,0.2-0.1c0.1,0,0.3-0.1,0.6-0.3c0.3-0.1,0.5-0.3,0.7-0.4
					c0.2-0.1,0.4-0.3,0.6-0.5c0,0-0.1-0.1-0.2-0.1c-0.1-0.1-0.2-0.1-0.2-0.1c0,0-0.2-0.1-0.4-0.2c-0.2-0.1-0.4-0.1-0.5-0.2
					s-0.2-0.1-0.2-0.2c0-0.1,0-0.1,0.1-0.2c0.1-0.1,0.2-0.1,0.5,0c0.2,0.1,0.7,0.3,1.3,0.6c0.1-0.1,0.3-0.3,0.4-0.5
					c0.2-0.3,0.3-0.5,0.3-0.6c0-0.2,0.1-0.3,0.1-0.3c0-0.1-0.1-0.1-0.2-0.1h-2.6c0,0-0.1,0-0.1-0.1c0,0-0.1-0.1,0-0.1
					c0,0,0-0.1,0.1-0.1c0,0,0.1-0.1,0.1-0.1h2.6c0.3,0,0.5,0.1,0.5,0.2c0,0.1,0.1,0.2,0.1,0.4c0,0.1-0.1,0.3-0.2,0.6
					S83.4,151,83,151.5 M76.8,149.8h-0.5c0,0-0.1,0-0.1-0.1c0,0-0.1-0.1-0.1-0.1c0,0,0-0.1,0.1-0.1c0,0,0.1-0.1,0.1-0.1h3.9
					c0,0,0.1,0,0.1,0.1c0,0,0.1,0.1,0,0.1c0,0,0,0.1-0.1,0.1c0,0-0.1,0-0.1,0h-0.3v2.7c0.1,0,0.2-0.1,0.3-0.1c0.1,0,0.2,0,0.2,0
					c0.1,0.1,0.1,0.1,0,0.2c0,0.1-0.2,0.2-0.5,0.2v0.7c0,0,0,0.1-0.1,0.2c-0.1,0.1-0.1,0.1-0.2,0c-0.1-0.1-0.1-0.1-0.1-0.2v-0.6
					c-1,0.2-1.7,0.3-2.1,0.4s-0.7,0.1-0.9,0.1c-0.2,0-0.3,0-0.3-0.1c0-0.1,0-0.1,0-0.2c0,0,0-0.1,0.1-0.1c0,0,0.2-0.1,0.5-0.1
					L76.8,149.8 M79.5,150.5v-0.7h-2.4v0.7H79.5 M79.5,151.7v-0.8h-2.4v0.8H79.5 M77.1,152v1c0.5-0.1,1.3-0.2,2.4-0.4V152H77.1
					 M79.6,155.7c0.1,0,0.1,0,0.2,0.1c0,0.1,0,0.1,0,0.2c-0.1,0.1-0.3,0.2-0.8,0.4c-0.5,0.2-0.9,0.4-1.4,0.5s-0.9,0.1-1.1,0.2
					c-0.2,0-0.3,0-0.4-0.1c0-0.1,0-0.1,0-0.2c0,0,0.1,0,0.1-0.1c0.1,0,0.2,0,0.3,0c0.2,0,0.5,0,0.8-0.1c0.4-0.1,0.8-0.2,1.1-0.3
					c0.4-0.1,0.6-0.3,0.8-0.4S79.5,155.7,79.6,155.7 M79.1,154.7c0.1,0,0.1,0,0.1,0.1c0,0.1,0,0.1,0,0.2c0,0-0.2,0.2-0.6,0.4
					c-0.4,0.2-0.9,0.4-1.4,0.4s-0.8,0.1-0.8,0c0,0-0.1,0-0.1-0.1c0,0-0.1-0.1,0-0.1c0-0.1,0.1-0.1,0.1-0.1c0.1,0,0.2,0,0.5,0
					c0.2,0,0.5-0.1,0.9-0.2c0.4-0.1,0.7-0.3,0.9-0.4C78.8,154.8,79,154.7,79.1,154.7 M80.3,154.2c0.3,0.4,0.5,0.8,0.7,1
					c0.5-0.2,0.9-0.3,1.3-0.6c0.4-0.2,0.7-0.4,0.9-0.6c0.3-0.2,0.4-0.3,0.5-0.2c0.1,0.1,0.1,0.1,0.1,0.2s-0.2,0.2-0.5,0.5
					c-0.3,0.3-1,0.6-2,1c0.2,0.2,0.4,0.3,0.6,0.4s0.4,0.3,0.6,0.3c0.2,0.1,0.4,0.2,0.6,0.2c0.2,0.1,0.5,0.2,0.8,0.2
					c0.3,0.1,0.5,0.2,0.5,0.3c0,0.1-0.2,0.1-0.7,0c-0.5-0.1-1-0.3-1.5-0.6c-0.5-0.3-0.9-0.5-1.1-0.8s-0.5-0.6-0.8-1v2.7
					c0,0.1,0,0.2-0.1,0.2c-0.1,0-0.1,0-0.2-0.1c0,0-0.1-0.1-0.1-0.1l0-3.3c-0.7,0.1-1.3,0.1-1.8,0.1s-0.9,0-1,0
					c-0.2,0-0.3,0-0.3-0.1c-0.1-0.1,0-0.1,0-0.2c0-0.1,0.3-0.1,0.6-0.1c0.4,0,0.9,0,1.6-0.1c0.7,0,1.3-0.1,1.9-0.2
					c0.5-0.1,0.9-0.2,1.2-0.4s0.5-0.2,0.6-0.2c0.1,0.1,0.1,0.2,0,0.3c-0.1,0.1-0.3,0.2-0.6,0.4C81.7,154,81.2,154.1,80.3,154.2
					L80.3,154.2z"/>
				<path id="XMLID_2495_" class="st1" d="M119.4,149.8h4.7c0.1,0,0.2,0,0.2,0.1c0,0.1,0,0.2-0.1,0.2c0,0-0.1,0.1-0.1,0.1h-4.8
					c-0.3,0.7-0.5,1.3-0.7,1.6c-0.2,0.3-0.5,0.8-0.9,1.5v4.1c0,0,0,0.1-0.1,0.2s-0.1,0.1-0.2,0c-0.1-0.1-0.1-0.1-0.1-0.2v-3.6
					c-0.2,0.2-0.3,0.4-0.4,0.5c-0.1,0.1-0.2,0.3-0.4,0.4c-0.1,0.1-0.2,0.2-0.3,0.3c-0.1,0.1-0.1,0.1-0.2,0.1c-0.1,0-0.1,0-0.2,0
					c0-0.1-0.1-0.1,0-0.2c0-0.1,0.2-0.3,0.6-0.7c0.4-0.4,0.8-0.9,1.3-1.6c0.5-0.7,0.9-1.4,1.2-2.3h-2.7c0,0-0.1,0-0.1,0
					c0,0-0.1-0.1-0.1-0.1c0-0.1,0-0.1,0-0.2c0,0,0.1-0.1,0.1-0.1h2.8c0.1-0.2,0.1-0.4,0.2-0.5c0.1-0.2,0.1-0.3,0.1-0.3
					c0-0.1,0.1-0.1,0.2-0.1c0.1,0,0.2,0.1,0.2,0.2c0,0.1,0,0.2-0.1,0.3L119.4,149.8L119.4,149.8 M120.9,153.6h-2.5
					c-0.1,0-0.1,0-0.1-0.1c0,0-0.1-0.1,0-0.2c0-0.1,0.1-0.2,0.2-0.2h2.5v-1.7c0,0,0-0.1,0-0.1c0,0,0.1-0.1,0.1-0.1
					c0.1,0,0.1,0,0.1,0.1c0,0,0.1,0.1,0.1,0.1v1.7h2.6c0.1,0,0.1,0,0.2,0.1c0,0.1,0,0.2,0,0.2c0,0-0.1,0.1-0.1,0.1h-2.6v3.2h2.7
					c0,0,0.1,0,0.1,0.1c0,0,0.1,0.1,0.1,0.1c0,0,0,0.1-0.1,0.1c0,0-0.1,0.1-0.1,0.1h-5.7c-0.1,0-0.2-0.1-0.2-0.2
					c0-0.1,0.1-0.2,0.2-0.2h2.6L120.9,153.6z"/>
				<path id="XMLID_2466_" class="st1" d="M156.8,156.5c0.2-0.1,0.5-0.1,0.7-0.2c0.2-0.1,0.4-0.1,0.6-0.2v-6.8c0-0.1,0-0.1,0.1-0.2
					c0,0,0.1-0.1,0.2-0.1c0,0,0.1,0,0.1,0.1c0,0,0.1,0.1,0.1,0.2v1.8h1.4c0,0,0.1,0,0.1,0.1c0,0,0.1,0.1,0.1,0.1
					c0,0.1,0,0.1-0.1,0.1s-0.1,0.1-0.1,0.1h-1.4v4.5c0.1,0,0.3-0.1,0.6-0.2c0.3-0.1,0.6-0.2,0.7-0.3c0.2-0.1,0.3-0.1,0.3,0
					c0,0.1,0.1,0.2,0,0.2c-0.1,0.1-0.4,0.2-1.1,0.5c-0.7,0.2-1.4,0.4-2.1,0.6c-0.7,0.2-1.1,0.3-1.2,0.3c-0.2,0-0.2,0-0.3-0.1
					s0-0.1,0.1-0.2c0,0,0.2-0.1,0.4-0.1c0.2-0.1,0.4-0.1,0.5-0.1v-6.1c0-0.1,0-0.1,0.1-0.1c0,0,0.1-0.1,0.2-0.1
					c0.1,0,0.1,0.1,0.1,0.2V156.5 M161,152.3c0.5-0.4,0.9-0.7,1.3-1s0.6-0.5,0.7-0.8c0.2-0.2,0.3-0.3,0.4-0.3c0.1,0,0.2,0,0.2,0.1
					c0,0.1,0,0.1,0,0.2c0,0.1-0.3,0.4-0.8,0.9c-0.5,0.5-1.1,1-1.8,1.5v3.1c0,0.2,0,0.3,0,0.4c0,0.1,0.1,0.2,0.2,0.3s0.3,0.2,0.6,0.2
					c0.8,0.1,1.2,0,1.3-0.3c0.1-0.3,0.2-0.5,0.2-0.6c0-0.2,0-0.3,0-0.4c0-0.1,0-0.1,0-0.2c0-0.1,0-0.1,0-0.2c0-0.2,0.1-0.3,0.2-0.2
					c0.1,0,0.2,0.1,0.2,0.2c0,0.1,0,0.2,0,0.2c0,0.2,0,0.4,0,0.7c0,0.3-0.1,0.5-0.2,0.7s-0.3,0.3-0.5,0.4c-0.2,0.1-0.5,0.1-0.8,0.1
					c-0.9,0-1.4-0.2-1.5-0.5c-0.1-0.3-0.1-0.6-0.1-0.9v-6.5c0-0.1,0-0.1,0-0.2c0,0,0.1-0.1,0.1-0.1c0.1,0,0.1,0,0.2,0.1
					c0,0,0.1,0.1,0.1,0.2L161,152.3z"/>
			</g>
			<g id="XMLID_1730_">
				<path id="XMLID_1732_" class="st1" d="M129.1,43.3c-1-0.8-2.3-1.2-3.6-1l-34.9,6.1c-2.1,0.4-3.6,2.2-3.6,4.3v33.4
					c-1.5-0.6-3.1-0.9-4.8-0.9c-7.4,0-13.5,6.1-13.5,13.5c0,7.4,6.1,13.5,13.5,13.5c7.3,0,13.3-5.9,13.5-13.2c0,0,0-0.1,0-0.1V72.1
					l26.1-4.6v10.8c-1.5-0.6-3.1-0.9-4.8-0.9c-7.4,0-13.5,6.1-13.5,13.5c0,7.4,6.1,13.5,13.5,13.5c7.3,0,13.3-5.9,13.5-13.2
					c0,0,0-0.1,0-0.1V46.6C130.7,45.4,130.1,44.1,129.1,43.3L129.1,43.3z M82.3,103.6c-2.6,0-4.8-2.2-4.8-4.8c0-2.6,2.1-4.8,4.8-4.8
					s4.8,2.2,4.8,4.8C87.1,101.4,85,103.6,82.3,103.6z M95.8,63.2v-6.8l26.1-4.6v6.8L95.8,63.2z M117.2,95.7c-2.6,0-4.8-2.2-4.8-4.8
					c0-2.6,2.2-4.8,4.8-4.8c2.6,0,4.8,2.2,4.8,4.8C122,93.6,119.8,95.7,117.2,95.7z"/>
			</g>
		</g>
	</g>
</g>
</svg>
