<?xml version="1.0" encoding="utf-8"?>
<!-- Generator: Adobe Illustrator 19.0.0, SVG Export Plug-In . SVG Version: 6.00 Build 0)  -->
<svg version="1.1" id="圖層_1" xmlns="http://www.w3.org/2000/svg" xmlns:xlink="http://www.w3.org/1999/xlink" x="0px" y="0px"
	 width="200px" height="200px" viewBox="0 0 200 200" style="enable-background:new 0 0 200 200;" xml:space="preserve">
<style type="text/css">
	.st0{fill:#9AC943;}
	.st1{fill:#FFFFFF;}
</style>
<g id="XMLID_2660_">
	<rect id="XMLID_2589_" class="st0" width="200" height="200"/>
	<g id="XMLID_2590_">
		<g id="XMLID_2591_">
			<g id="XMLID_2638_">
				<path id="XMLID_2654_" class="st1" d="M52.9,137l4.7,5.8c0.3,0.4,0.8,0.4,1.2,0.2l0.1-0.1c0.4-0.3,0.4-0.8,0.1-1.2l-3.6-4.6
					l0.1-0.1l2.5-2.6c0.1-0.2,0.2-0.4,0.2-0.6c0-0.2-0.1-0.4-0.3-0.6l0,0c-0.4-0.3-0.9-0.3-1.2,0.1l-2.3,2.5l-1-1.2
					c-0.1-0.1-0.2-0.2-0.3-0.2V132h5.5c0.4,0,0.8-0.4,0.8-0.8v-0.1c0-0.5-0.4-0.8-0.8-0.8h-0.5v-5.7c0-1.3-0.8-2.4-2-2.9
					c-0.4-0.2-0.8-0.3-1.3-0.3h-8.1c-0.5,0-0.8,0.4-0.8,0.8v0.1c0,0.5,0.4,0.8,0.8,0.8h8.1c0.5,0,0.8,0.1,1.1,0.4s0.5,0.6,0.5,1v1.4
					h-9.7c-0.5,0-0.8,0.4-0.8,0.8v0c0,0.5,0.4,0.8,0.8,0.8h9.7v2.6H45.5c-0.5,0-0.8,0.4-0.8,0.8v0.1c0,0.5,0.4,0.8,0.8,0.8h5.7v9.2
					c0,0.4-0.2,0.7-0.5,1c-0.3,0.3-0.7,0.4-1.1,0.4h-0.2c-0.4,0-0.8,0.4-0.8,0.8v0.1c0,0.4,0.4,0.8,0.8,0.8h0.2
					c0.5,0,0.9-0.1,1.3-0.3c1.2-0.5,2.1-1.6,2.1-2.9L52.9,137z M42.3,123c0.1-0.2,0.1-0.5,0-0.7c-0.1-0.2-0.3-0.4-0.5-0.5l-0.1,0
					c-0.4-0.2-0.9,0-1.1,0.4l-3.9,8.9c-0.3,0.6,0.2,1.2,0.8,1.2h2.2l-2.8,5.7c-0.3,0.6,0.1,1.2,0.8,1.2h5.1c0.5,0,0.8-0.4,0.8-0.8
					v-0.1c0-0.5-0.4-0.8-0.8-0.8h-3.6l4.1-8.5c0.2-0.4,0-0.9-0.4-1.1c-0.4-0.2-0.9-0.1-1.1,0.4l-1.1,2.3c-0.1,0-0.2-0.1-0.3-0.1
					h-1.3L42.3,123z M43.3,143.8c0.5,0,0.8-0.4,0.8-0.8v-0.1c0-0.5-0.4-0.8-0.8-0.8h-6.2c-0.5,0-0.8,0.4-0.8,0.8v0.1
					c0,0.4,0.4,0.8,0.8,0.8H43.3z M44.8,141.5c-0.2,0.2-0.3,0.4-0.3,0.6c0,0.2,0.1,0.4,0.3,0.6l0,0c0.4,0.3,0.9,0.3,1.2-0.1l4.1-4.3
					c0.2-0.2,0.3-0.4,0.2-0.6c0-0.2-0.1-0.4-0.3-0.6l0,0c-0.3-0.3-0.8-0.3-1.2,0L44.8,141.5z M46.8,134c-0.3-0.3-0.8-0.3-1.2,0l0,0
					c-0.3,0.3-0.3,0.9,0,1.2l1.7,1.6c0.3,0.3,0.8,0.3,1.2,0v0c0.4-0.3,0.4-0.9,0-1.2L46.8,134z"/>
				<path id="XMLID_2649_" class="st1" d="M79.1,137c-0.4,0-0.8,0.4-0.8,0.8v0.1c0,0.5,0.4,0.8,0.8,0.8h3.5c1.1,0,2-0.7,2.5-1.7
					c0.2-0.3,0.2-0.7,0.2-1.1v-3.8c0-0.4-0.1-0.7-0.2-1c-0.4-1-1.4-1.7-2.5-1.7h-7c-0.7,0-1.4,0.3-1.9,0.8c-0.5,0.5-0.8,1.2-0.8,1.9
					v8.9c0,0.4,0.1,0.8,0.3,1.2c0.3,0.8,0.9,1.4,1.7,1.7c0.4,0.2,0.8,0.3,1.2,0.3h9.4c0.5,0,0.8-0.4,0.8-0.8v-0.1
					c0-0.5-0.4-0.8-0.8-0.8H76c-0.4,0-0.7-0.2-1-0.4c-0.3-0.3-0.4-0.6-0.4-1v-8.9c0-0.3,0.1-0.5,0.3-0.7c0.2-0.2,0.4-0.3,0.7-0.3h7
					c0.3,0,0.5,0.1,0.7,0.3c0.2,0.2,0.3,0.4,0.3,0.7v3.8c0,0.6-0.4,1-1,1L79.1,137z M89,142.6c-0.5,0-0.8,0.4-0.8,0.8v0.1
					c0,0.5,0.4,0.8,0.8,0.8h2c0.4,0,0.8-0.1,1.2-0.3c1.2-0.5,1.9-1.6,1.9-2.9v-19.1c0-0.5-0.4-0.8-0.8-0.8h0c-0.5,0-0.8,0.4-0.8,0.8
					v19.1c0,0.4-0.2,0.7-0.4,1c-0.3,0.3-0.6,0.4-1,0.4H89z M71.7,128.7c-0.2,0.4,0,0.9,0.4,1.1v0c0.4,0.2,0.9,0,1.1-0.4l1-2
					c0.4-1,0.9-1.9,1.3-2.8c0.2-0.3,0.4-0.6,0.6-0.8c0.3-0.2,0.6-0.3,1-0.3h4.2c0.4,0,0.8,0.1,1,0.3s0.5,0.5,0.7,0.8l2.3,4.8
					c0.2,0.4,0.7,0.6,1.1,0.4l0.1,0c0.4-0.2,0.6-0.7,0.4-1.1l-2.3-4.8c-0.4-0.7-0.8-1.2-1.2-1.6c-0.5-0.3-1.2-0.5-2-0.5h-4.2
					c-0.8,0-1.5,0.2-2,0.5c-0.5,0.3-0.9,0.8-1.2,1.6L71.7,128.7z M89.9,124.3c0-0.5-0.4-0.8-0.8-0.8h-0.1c-0.5,0-0.8,0.4-0.8,0.8v15
					c0,0.5,0.4,0.8,0.8,0.8h0.1c0.5,0,0.8-0.4,0.8-0.8V124.3z"/>
				<path id="XMLID_2643_" class="st1" d="M112.2,143.3c0.4,0,0.7-0.1,1-0.2c1-0.4,1.7-1.4,1.7-2.5v-15.2c0-0.7-0.3-1.4-0.8-1.9
					s-1.2-0.8-1.9-0.8h-3.4c-1.1,0-2.1,0.7-2.5,1.7c-0.2,0.3-0.2,0.7-0.2,1v15.2c0,1.5,1.2,2.7,2.7,2.7L112.2,143.3z M127.4,123.8
					v-1.9c0-0.4-0.4-0.8-0.8-0.8h0c-0.5,0-0.8,0.4-0.8,0.8v1.9h-9c-0.5,0-0.8,0.4-0.8,0.8v0.1c0,0.4,0.4,0.8,0.8,0.8h9V141
					c0,0.4-0.2,0.7-0.5,1s-0.6,0.4-1,0.4h-2c-0.5,0-0.8,0.4-0.8,0.8v0.1c0,0.4,0.4,0.8,0.8,0.8h2c1.3,0,2.4-0.8,2.9-2
					c0.2-0.4,0.3-0.8,0.3-1.2v-15.5h0.8c0.5,0,0.8-0.4,0.8-0.8v-0.1c0-0.5-0.4-0.8-0.8-0.8H127.4z M107.8,132.1v-6.8
					c0-0.3,0.1-0.5,0.3-0.7c0.2-0.2,0.4-0.3,0.7-0.3h3.4c0.3,0,0.5,0.1,0.7,0.3c0.2,0.2,0.3,0.4,0.3,0.7v6.8H107.8z M108.8,141.6
					c-0.6,0-1-0.4-1-1v-6.7h5.5v6.7c0,0.3-0.1,0.5-0.3,0.7c-0.2,0.2-0.5,0.3-0.7,0.3H108.8z M119.3,129.8c-0.1-0.4-0.6-0.7-1-0.5
					h-0.1c-0.4,0.2-0.7,0.6-0.6,1.1l2.6,8.1c0.2,0.5,0.6,0.7,1,0.5h0c0.5-0.1,0.7-0.6,0.6-1L119.3,129.8z"/>
				<path id="XMLID_2639_" class="st1" d="M155.2,128.5c-0.1-0.4-0.2-0.9-0.3-1.4c-0.4-1.7-0.7-3.3-1-5c-0.1-0.2-0.2-0.4-0.4-0.5
					c-0.2-0.1-0.4-0.2-0.7-0.1c-0.4,0.1-0.7,0.5-0.6,0.9c0.3,1.8,0.6,3.5,1,5.2l0.2,1l-5.9,0.7c-0.5,0.1-0.8,0.5-0.7,0.9v0.1
					c0.1,0.5,0.5,0.8,0.9,0.7l6.1-0.8c0.3,1.1,0.6,2.1,1,3.2c0.7,1.9,1.7,3.8,2.8,5.6c1,1.6,2.2,3.1,3.7,4.4
					c0.2,0.2,0.4,0.2,0.6,0.2c0.3,0,0.5-0.1,0.6-0.3l0.1-0.1c0.3-0.3,0.3-0.8-0.1-1.1c-1.4-1.3-2.5-2.7-3.5-4.2
					c-1.1-1.7-1.9-3.5-2.6-5.4c-0.3-0.8-0.6-1.7-0.9-2.6l7.4-0.9c0.5-0.1,0.8-0.5,0.7-1v-0.1c-0.1-0.4-0.5-0.7-0.9-0.7L155.2,128.5z
					 M141.5,126.3c-0.3,0.3-0.3,0.9,0,1.2l0,0c0.3,0.3,0.8,0.3,1.2,0l1.6-1.6v17.4c0,0.5,0.4,0.8,0.8,0.8h0c0.5,0,0.8-0.4,0.8-0.8
					v-19.5c0-0.8-0.9-1.1-1.4-0.6L141.5,126.3z M161.8,123c0-0.5-0.4-0.8-0.8-0.8s-0.8,0.4-0.8,0.8v1.9c0,0.5,0.4,0.8,0.8,0.8
					s0.8-0.4,0.8-0.8V123z"/>
			</g>
			<path id="XMLID_2595_" class="st1" d="M71.2,149.9h4.7c0.1,0,0.2,0,0.2,0.1c0,0.1,0,0.2-0.1,0.2c0,0-0.1,0-0.1,0h-5
				c-0.1,0.2-0.2,0.4-0.4,0.5c-0.1,0.1-0.3,0.4-0.6,0.7l4.6,0c0.5,0,0.8,0.3,0.8,0.7l0,4.7c0,0.1,0,0.3,0,0.5c0,0.2-0.3,0.3-0.9,0.3
				c-0.2,0-0.5,0-0.8-0.1c-0.4-0.1-0.6-0.1-0.6-0.2c0-0.1-0.1-0.1-0.1-0.2c0-0.1,0.1-0.1,0.2-0.2c0,0,0.1,0,0.1,0
				c0,0,0.2,0.1,0.5,0.2c0.3,0.1,0.6,0.1,0.8,0.1c0.3,0,0.5-0.2,0.5-0.5v-1.2h-5.7v1.9c0,0.1-0.1,0.2-0.2,0.2
				c-0.1,0-0.2-0.1-0.2-0.2v-5.2c-0.8,0.6-1.3,0.9-1.5,0.9c-0.1,0-0.2,0-0.2-0.1c0-0.1,0-0.1,0-0.1c0,0,0-0.1,0.1-0.1
				s0.3-0.2,0.6-0.4s0.8-0.5,1.3-0.9c0.5-0.4,0.9-0.8,1.2-1.3h-2.8c-0.1,0-0.2-0.1-0.2-0.2c0-0.1,0.1-0.2,0.2-0.2h3
				c0.2-0.3,0.3-0.5,0.3-0.5c0-0.1,0.1-0.1,0.1-0.3c0.1-0.1,0.1-0.2,0.1-0.2c0,0,0.1,0,0.1,0s0.1,0,0.1,0.1c0,0,0.1,0.1,0.1,0.1
				c0,0,0,0.1,0,0.1c0,0-0.1,0.2-0.2,0.4L71.2,149.9L71.2,149.9 M75.1,155.2v-1.5h-5.7v1.5H75.1 M69.4,153.4h5.7v-1.1
				c0-0.1,0-0.2,0-0.3c0-0.1-0.2-0.2-0.4-0.2h-4.7c-0.3,0-0.4,0.1-0.4,0.2c0,0.1-0.1,0.2-0.1,0.3L69.4,153.4z M76.8,157l0.1-0.2
				c0.3-0.5,0.5-0.9,0.6-1.2c0.1-0.3,0.2-0.6,0.3-0.9c0.1-0.3,0.1-0.5,0.1-0.7l0.1-0.4c0-0.2,0.1-0.2,0.2-0.2c0.1,0,0.2,0.1,0.2,0.2
				c0,0.1-0.1,0.4-0.1,0.8s-0.2,0.7-0.3,1.1s-0.3,0.7-0.5,1c-0.2,0.3-0.3,0.6-0.4,0.7s-0.2,0.2-0.2,0.2c-0.1,0-0.1,0-0.2-0.1
				s-0.1-0.1-0.1-0.1c0-0.1,0-0.1,0-0.1C76.7,157.1,76.8,157.1,76.8,157 M83.8,149.2c0.5,0,0.7,0.2,0.8,0.4c0.1,0.2,0.1,0.4,0.1,0.5
				v1.9c0,0.5-0.3,0.7-0.8,0.7l-4.1,0c-0.5,0-0.8-0.3-0.8-0.8v-2c0-0.1,0-0.3,0.1-0.5c0.1-0.2,0.3-0.3,0.8-0.3L83.8,149.2
				 M79.4,150.7l4.9,0v-0.6c0-0.2,0-0.3-0.1-0.4s-0.2-0.1-0.4-0.1h-3.9c-0.3,0-0.4,0.2-0.4,0.5V150.7 M79.4,151.1v0.9
				c0,0.1,0,0.1,0,0.2c0,0.1,0.1,0.2,0.3,0.2h4.2c0.1,0,0.2,0,0.3-0.1c0.1-0.1,0.1-0.2,0.1-0.3v-0.9L79.4,151.1 M78.3,150.7
				c-0.2-0.3-0.4-0.5-0.6-0.7c-0.2-0.2-0.3-0.3-0.3-0.3l-0.2-0.2c-0.1,0-0.1-0.1-0.1-0.1c0,0,0-0.1,0-0.1c0-0.1,0.1-0.1,0.1-0.1
				c0.1,0,0.2,0.1,0.5,0.3c0.2,0.2,0.5,0.5,0.7,0.7c0.2,0.3,0.3,0.4,0.3,0.5c0,0.1,0,0.1-0.1,0.2C78.5,151,78.4,150.9,78.3,150.7
				 M77.9,152.8c-0.1-0.2-0.3-0.4-0.5-0.6c-0.2-0.2-0.4-0.4-0.5-0.4c-0.1-0.1-0.2-0.1-0.2-0.2s0-0.1,0-0.1c0,0,0-0.1,0-0.1
				c0-0.1,0.1-0.1,0.1-0.1c0.1,0,0.2,0.1,0.5,0.3c0.3,0.2,0.5,0.5,0.7,0.8c0.2,0.3,0.3,0.4,0.3,0.5c0,0,0,0.1,0,0.1
				c0,0-0.1,0.1-0.2,0.1c0,0-0.1,0-0.1,0S78,152.9,77.9,152.8 M78.9,157.1v-2.7c0-0.1,0-0.2,0.1-0.4c0-0.2,0.3-0.3,0.8-0.3h4.2
				c0.3,0,0.5,0,0.6,0.1c0.1,0.1,0.2,0.2,0.2,0.3c0,0.1,0.1,0.2,0.1,0.3l0,2.7h0.4c0.1,0,0.1,0,0.2,0.1c0,0,0.1,0.1,0.1,0.1
				c0,0.1-0.1,0.2-0.2,0.2h-6.9c-0.1,0-0.1,0-0.2,0c0,0-0.1-0.1-0.1-0.2s0.1-0.2,0.2-0.2L78.9,157.1 M80.7,157.1V154h-1.1
				c-0.3,0-0.4,0.1-0.4,0.4v2.7L80.7,157.1 M82.5,157.1V154l-1.4,0v3.1L82.5,157.1 M82.9,157.1h1.4v-2.7c0-0.1,0-0.2-0.1-0.3
				c0-0.1-0.2-0.1-0.4-0.1h-1L82.9,157.1z M90.4,149.7c0-0.1,0-0.1,0-0.2c0-0.1,0-0.2-0.1-0.3c0-0.1-0.1-0.2-0.1-0.2
				c0,0,0-0.1,0-0.1s0.1-0.1,0.1-0.1c0.1,0,0.1,0,0.2,0c0,0,0.1,0.1,0.1,0.1s0.1,0.2,0.1,0.4l0,0.4l3.3,0c0,0,0.1,0,0.1,0.1
				c0,0,0.1,0.1,0.1,0.1c0,0.1,0,0.1,0,0.1c0,0-0.1,0.1-0.1,0.1h-6.6c-0.2,0-0.4,0.1-0.4,0.2s-0.1,0.2-0.1,0.3v2.3c0,0.5,0,1,0,1.4
				c0,0.4-0.1,0.8-0.1,1c0,0.3-0.1,0.6-0.2,1c-0.1,0.4-0.2,0.6-0.3,0.7c-0.1,0.1-0.2,0.1-0.2,0c0-0.1-0.1-0.1-0.1-0.2
				c0,0,0-0.1,0-0.1c0,0,0-0.1,0.1-0.2c0-0.1,0.1-0.3,0.2-0.5c0.1-0.2,0.1-0.5,0.2-0.7c0-0.2,0.1-0.4,0.1-0.6c0-0.2,0-0.5,0-0.9
				c0-0.4,0-0.7,0-1v-2.4c0-0.1,0-0.3,0.1-0.5c0.1-0.2,0.3-0.3,0.7-0.3L90.4,149.7 M90.3,156.5c-0.8-0.4-1.3-0.8-1.6-1.1
				c-0.2-0.3-0.4-0.5-0.4-0.5c0-0.1-0.1-0.1,0-0.1c0,0,0-0.1,0.1-0.1c0,0,0.1-0.1,0.1-0.1c0,0,0.1,0,0.1,0.1c0,0,0.1,0.1,0.2,0.2
				c0.1,0.1,0.3,0.3,0.4,0.5c0.2,0.2,0.4,0.4,0.8,0.6s0.6,0.4,0.8,0.4c0.1,0,0.2-0.1,0.3-0.1l0.6-0.3c0.5-0.3,0.8-0.5,1.1-0.8
				c0.3-0.3,0.4-0.4,0.5-0.5c0-0.1,0.1-0.2,0-0.2c0,0-0.1-0.1-0.2-0.1h-4.9c0,0-0.1,0-0.1-0.1c0,0,0-0.1,0-0.1
				c0-0.1,0.1-0.2,0.2-0.2h5.1c0.4,0,0.5,0.1,0.5,0.3s0,0.3-0.1,0.4c-0.1,0.1-0.2,0.3-0.4,0.5c-0.2,0.2-0.4,0.4-0.7,0.6
				c-0.3,0.2-0.7,0.5-1.3,0.8c0.5,0.2,1,0.3,1.6,0.5s1.1,0.2,1.3,0.2s0.4,0.1,0.4,0.2c0,0.1-0.1,0.2-0.2,0.2c-0.2,0-0.7-0.1-1.4-0.2
				c-0.8-0.2-1.5-0.4-2.2-0.7c-1.1,0.4-2,0.6-2.7,0.7c-0.7,0.1-1,0.1-1.1,0.1c-0.1,0-0.2-0.1-0.2-0.2s0-0.2,0.1-0.2
				c0,0,0.1-0.1,0.1-0.1c0.1,0,0.4,0,1-0.1S89.4,156.8,90.3,156.5 M88.7,151.3v-0.9c0-0.1,0.1-0.2,0.2-0.2c0.1,0,0.2,0.1,0.2,0.2
				v0.9h3.7v-0.8c0-0.1,0.1-0.2,0.2-0.2c0.1,0,0.2,0.1,0.2,0.2v0.8h1.4c0.1,0,0.2,0,0.2,0.1c0,0.1,0,0.1,0,0.2c0,0-0.1,0.1-0.1,0.1
				h-1.4v0.8c0,0.5-0.3,0.7-0.8,0.7h-2.9c-0.4,0-0.6-0.1-0.6-0.3c-0.1-0.2-0.1-0.3-0.1-0.4v-0.8h-1.2c0,0-0.1,0-0.1-0.1
				c0,0,0-0.1,0-0.1c0-0.1,0.1-0.2,0.2-0.2H88.7 M92.7,151.7h-3.7v0.8c0,0.1,0,0.1,0,0.2c0,0.1,0.1,0.2,0.4,0.2h2.8
				c0.2,0,0.3-0.1,0.4-0.2c0-0.1,0.1-0.2,0.1-0.3V151.7z M97.1,150.3c0.1-0.2,0.2-0.4,0.2-0.5c0-0.1,0-0.2,0.1-0.3l0-0.3
				c0-0.1,0-0.2,0.1-0.2c0,0,0.1,0,0.2,0c0.1,0,0.1,0.1,0.1,0.3c-0.1,0.4-0.1,0.7-0.2,1l1,0c0.5,0,0.8,0.3,0.8,0.8v5.2
				c0,0.1,0,0.2-0.1,0.5c-0.1,0.2-0.3,0.3-0.6,0.3h-2.3c-0.5,0-0.7-0.2-0.7-0.7v-5.2c0-0.2,0-0.3,0.1-0.5c0.1-0.2,0.3-0.3,0.7-0.3
				H97.1 M99.1,153.7h-3v2.4c0,0.2,0,0.3,0,0.3c0,0.1,0.1,0.1,0.1,0.1c0.1,0,0.2,0,0.3,0h2c0.3,0,0.4,0,0.5-0.1
				c0-0.1,0.1-0.2,0.1-0.4V153.7 M96.1,153.3h3v-2.2c0-0.1,0-0.2,0-0.3c0-0.1-0.1-0.1-0.1-0.2c-0.1,0-0.2,0-0.4,0h-1.8
				c-0.2,0-0.3,0-0.4,0c-0.1,0-0.1,0.1-0.1,0.1c0,0.1,0,0.2,0,0.4L96.1,153.3 M100.8,149.9l2.2,0c0.3,0,0.6,0.1,0.7,0.2
				c0.1,0.2,0.2,0.4,0.2,0.7v2.3c0,0.5,0,0.9,0,1.1c0,0.2,0,0.4,0,0.5c0,0.1,0,0.2,0,0.3l0,0.4c0,0.1,0,0.3-0.1,0.6
				c0,0.3-0.1,0.6-0.3,0.9c-0.2,0.3-0.5,0.5-1,0.5c-0.3,0-0.5,0-0.7,0c-0.2,0-0.4-0.1-0.7-0.2l-0.2-0.1c-0.3-0.1-0.5-0.1-0.5-0.2
				c0-0.1-0.1-0.1-0.1-0.2c0-0.1,0.1-0.2,0.2-0.2c0,0,0.1,0,0.2,0.1c0.1,0,0.3,0.1,0.7,0.2c0.4,0.1,0.7,0.1,1,0.1
				c0.3,0,0.5-0.1,0.7-0.2c0.2-0.1,0.3-0.4,0.4-0.8c0-0.4,0.1-0.8,0.1-1c0-0.3,0-0.5,0-0.8c0-0.3,0-0.7,0-1.2v-2.2
				c0-0.1,0-0.3-0.1-0.4c-0.1-0.1-0.2-0.2-0.6-0.2h-2.1c0,0.2-0.1,0.3-0.1,0.4c0,0.1-0.1,0.3-0.1,0.5c-0.1,0.2-0.2,0.4-0.3,0.6
				c-0.1,0.2-0.2,0.3-0.3,0.3s-0.2,0-0.2-0.1c0-0.1,0-0.1,0-0.1c0,0,0-0.1,0.1-0.1l0.2-0.3c0.2-0.3,0.3-0.8,0.4-1.2
				c0.1-0.5,0.1-0.8,0.2-1c0-0.2,0.1-0.3,0.2-0.3c0.1,0,0.2,0.1,0.2,0.3l0,0.4L100.8,149.9L100.8,149.9 M100.6,152.2
				c0,0,0-0.1,0.1-0.1c0,0,0.1-0.1,0.1-0.1c0,0,0.1,0,0.1,0.1s0.2,0.3,0.4,0.6c0.2,0.4,0.4,0.7,0.5,1c0.1,0.3,0.2,0.6,0.4,0.8
				c0.1,0.3,0.2,0.4,0.2,0.5s0,0.1,0,0.2c0,0.1,0,0.1-0.1,0.1c-0.1,0-0.1,0-0.2,0c0,0-0.1-0.1-0.1-0.2c0-0.1-0.1-0.3-0.2-0.5
				c-0.1-0.2-0.2-0.5-0.3-0.7c-0.1-0.3-0.2-0.5-0.3-0.7c-0.1-0.2-0.2-0.4-0.3-0.6S100.6,152.3,100.6,152.2L100.6,152.2z
				 M106.6,154.9c-0.7,0.6-1.1,0.9-1.2,0.9c-0.1,0-0.2,0-0.2,0c0,0-0.1-0.1-0.1-0.2c0,0,0,0,0-0.1c0,0,0-0.1,0-0.1v-4.7
				c0-0.4,0-0.7,0-0.7s0-0.2,0.1-0.2c0-0.1,0.1-0.2,0.3-0.2l0.4-0.2c0.1,0,0.2-0.1,0.5-0.3c0.2-0.1,0.4-0.2,0.5-0.2
				c0.1,0,0.1,0.1,0.1,0.2c0,0,0,0.1-0.1,0.1s-0.2,0.1-0.3,0.2c-0.2,0.1-0.3,0.2-0.6,0.3c-0.2,0.1-0.3,0.2-0.4,0.2
				c-0.1,0.1-0.1,0.1-0.1,0.2c0,0.1,0,0.2,0,0.3v5c0.2-0.1,0.4-0.3,0.6-0.4c0.2-0.2,0.4-0.3,0.6-0.5v-4.2c0,0,0-0.1,0.1-0.2
				c0-0.1,0.1-0.1,0.2,0c0.1,0,0.1,0.1,0.1,0.2l0,4.1c0,0.2,0,0.4,0,0.5c0,0.2,0,0.3-0.1,0.5c0,0.1-0.1,0.3-0.2,0.6
				c-0.1,0.2-0.2,0.4-0.3,0.6c-0.1,0.1-0.2,0.3-0.3,0.5s-0.3,0.4-0.4,0.5c-0.1,0.1-0.2,0.1-0.2,0.1c-0.1,0-0.1-0.1-0.1-0.1
				c0,0,0-0.1,0-0.2c0,0,0.1-0.1,0.1-0.2c0.1-0.1,0.2-0.2,0.3-0.4c0.1-0.2,0.2-0.3,0.3-0.4c0.1-0.1,0.1-0.2,0.2-0.4
				c0.1-0.2,0.1-0.3,0.2-0.5S106.5,155.1,106.6,154.9 M106.3,153.9c0,0.1,0,0.1-0.1,0.2c0,0.1-0.1,0.1-0.2,0c0,0-0.1-0.1-0.1-0.2
				c0-0.1,0-0.2,0-0.4l0-0.6c0-0.5,0-0.8,0-0.9l0-0.4c0-0.2,0-0.3,0-0.5c0-0.2,0-0.3,0-0.4c0-0.1,0-0.1,0-0.2s0.1-0.1,0.2,0
				c0,0,0,0.1,0.1,0.2c0,0.1,0,0.2,0,0.4l0.1,1.1c0,0.1,0,0.3,0,0.7c0,0.4,0,0.7,0,0.7C106.3,153.6,106.3,153.7,106.3,153.9
				 M108.6,154.1c0,0.3,0,0.4,0,0.5c0,0.1,0,0.2-0.1,0.2c0,0-0.1,0-0.1,0c0,0-0.1,0-0.1-0.1c0,0,0-0.2,0-0.4s0-0.4,0-0.6l0-0.7
				c0-0.4,0-0.6,0-0.8s0-0.3,0-0.6c0-0.3,0-0.5-0.1-0.6c0-0.1,0-0.2,0-0.3s0-0.2,0.1-0.2c0,0,0.1,0,0.1,0c0,0,0.1,0.1,0.1,0.2
				c0,0.1,0,0.3,0.1,0.8s0,0.7,0,0.7l0,0.7c0,0.1,0,0.4,0,0.6L108.6,154.1L108.6,154.1 M112.3,155.1h1.1c0.1,0,0.2,0.1,0.2,0.2
				c0,0,0,0.1-0.1,0.1c0,0-0.1,0-0.1,0h-1c0,0.1,0.1,0.3,0.1,0.4c0,0.1,0,0.3,0,0.6c0,0.3-0.2,0.6-0.4,0.8c-0.2,0.2-0.5,0.3-0.8,0.3
				c-0.2,0-0.3,0-0.5,0c-0.1,0-0.4-0.1-0.7-0.1c-0.3-0.1-0.5-0.1-0.6-0.2c-0.1-0.1-0.2-0.2-0.2-0.2c0-0.1,0-0.1,0-0.2
				c0.1,0,0.1-0.1,0.2-0.1c0,0,0.2,0.1,0.4,0.2c0.2,0.1,0.5,0.2,0.8,0.2c0.3,0,0.5,0.1,0.6,0c0.3-0.1,0.5-0.2,0.6-0.4
				c0.1-0.2,0.1-0.5,0.1-0.7c0-0.2-0.1-0.4-0.1-0.6l-2.8,0v0.5c0,0.4-0.2,0.6-0.6,0.6c-0.1,0-0.4-0.1-0.9-0.2v1.1
				c0,0.1,0,0.1-0.1,0.2c0,0-0.1,0.1-0.1,0.1c0,0-0.1,0-0.1-0.1c0,0,0-0.1,0-0.2v-7.5c0-0.1,0-0.2,0.1-0.4s0.2-0.2,0.5-0.2h0.7
				c0.3,0,0.4,0.1,0.5,0.2c0.1,0.2,0.1,0.3,0.1,0.3v5.2h2.6c-0.1-0.1-0.2-0.1-0.2-0.2c-0.1-0.1-0.2-0.1-0.3-0.2
				c-0.2-0.1-0.3-0.2-0.3-0.2c-0.1-0.1-0.1-0.1-0.1-0.2c0-0.1,0-0.1,0.1-0.2c0,0,0.1-0.1,0.2-0.1c0.1-0.1,0.3-0.2,0.5-0.4
				c0.2-0.2,0.4-0.3,0.5-0.4c0.1-0.1,0.2-0.2,0.3-0.2s0.1-0.1,0.1-0.1c0,0-0.1,0-0.2,0h-2.5c0,0-0.1,0-0.1,0c0,0-0.1-0.1-0.1-0.1
				c0,0,0-0.1,0-0.1c0-0.1,0.1-0.1,0.2-0.1h2.6c0.3,0,0.5,0,0.6,0.1c0.1,0.1,0.1,0.1,0.1,0.2c0,0.1-0.3,0.4-0.8,0.8
				c-0.5,0.4-0.8,0.6-0.9,0.6c-0.1,0.1-0.1,0.1-0.1,0.1c0,0,0,0.1,0,0.1c0,0,0.1,0.1,0.3,0.2C111.7,154.5,112,154.8,112.3,155.1
				 M107.7,156c0.5,0.1,0.8,0.2,0.9,0.2c0.1,0,0.1,0,0.2-0.1c0,0,0.1-0.1,0.1-0.3v-5.9c0-0.2-0.1-0.3-0.3-0.3H108
				c-0.2,0-0.2,0-0.2,0.1s0,0.1,0,0.2L107.7,156 M113,149.9c0,0,0.1,0,0.1,0.1s0.1,0.1,0.1,0.2c0,0,0,0.1,0,0.2l-0.1,0.3l-0.1,0.5
				c0,0.2-0.1,0.4-0.2,0.6c-0.1,0.2-0.2,0.3-0.3,0.2c-0.1-0.1-0.1-0.2-0.1-0.2c0,0,0-0.1,0.1-0.2c0-0.1,0.1-0.3,0.1-0.5
				c0-0.2,0.1-0.3,0.1-0.4l0.1-0.5C112.8,150,112.9,149.9,113,149.9 M109.6,150.1c0,0-0.1,0-0.1,0c0,0-0.1-0.1-0.1-0.1
				c0-0.1,0-0.1,0.1-0.2c0,0,0.3-0.1,0.7-0.1c0.5-0.1,0.9-0.1,1.2-0.2l0.9-0.2c0.2,0,0.4-0.1,0.5-0.1c0.2-0.1,0.2,0,0.2,0.2
				c0,0.1,0,0.1-0.1,0.2c0,0-0.6,0.2-1.7,0.4C110.3,150,109.7,150.1,109.6,150.1 M111.1,150.3c0-0.1,0.1-0.2,0.2-0.2
				c0.1,0,0.2,0.1,0.2,0.2c0,0.1,0,0.2,0.1,0.4l0,0.4l0,0.3c0,0.2,0,0.3,0,0.3c0,0.1,0,0.2-0.1,0.2c-0.1,0.1-0.1,0-0.2-0.1
				c0,0-0.1-0.1-0.1-0.3s0-0.2,0-0.3c0-0.1,0-0.2,0-0.3c0-0.1,0-0.2-0.1-0.4S111,150.4,111.1,150.3 M109.6,150.4
				c0-0.1,0.1-0.2,0.2-0.2c0.1,0,0.2,0.1,0.2,0.3s0.1,0.3,0.2,0.5c0.1,0.1,0.1,0.3,0.1,0.4c0,0.1,0.1,0.2,0.1,0.3
				c0,0.1,0,0.1-0.1,0.2s-0.1,0.1-0.1,0.1c-0.1,0-0.1,0-0.2-0.1c0,0-0.1-0.1-0.1-0.2c0-0.1-0.1-0.2-0.1-0.4c0-0.1-0.1-0.3-0.2-0.4
				C109.6,150.6,109.6,150.5,109.6,150.4z M115.8,151.6v5.7c0,0.1,0,0.2-0.1,0.3c-0.1,0.1-0.1,0.1-0.2,0c-0.1-0.1-0.1-0.2-0.1-0.3
				v-5c-0.4,0.6-0.7,1.1-0.8,1.2c-0.1,0.2-0.3,0.2-0.3,0.1c-0.1-0.1-0.1-0.1-0.1-0.2c0,0,0-0.1,0-0.1c0,0,0.1-0.1,0.2-0.2
				c0.1-0.1,0.3-0.3,0.5-0.6c0.2-0.3,0.4-0.7,0.6-1.1c0.2-0.5,0.3-0.9,0.4-1.3c0.1-0.4,0.1-0.6,0.1-0.7c0-0.1,0-0.2,0.1-0.2
				c0-0.1,0.1-0.1,0.2-0.1c0.1,0,0.2,0.1,0.2,0.3c0,0.1-0.1,0.4-0.1,0.8C116.2,150.6,116,151,115.8,151.6 M118.4,152.9
				c0.7-0.4,1.2-0.7,1.5-0.8c0.2-0.2,0.5-0.4,0.8-0.6c0.3-0.2,0.5-0.4,0.7-0.6c0.2-0.2,0.4-0.4,0.6-0.5c0.1-0.2,0.3-0.3,0.3-0.3
				c0.1-0.1,0.2-0.1,0.2,0s0.1,0.1,0,0.2c0,0.1-0.3,0.3-0.8,0.8c-0.5,0.4-0.9,0.8-1.3,1.1c-0.4,0.3-0.7,0.5-1,0.6l-0.7,0.4l-0.4,0.2
				v2c0,0.4,0,0.8,0.1,1c0,0.2,0.1,0.4,0.3,0.6c0.2,0.2,0.4,0.3,0.7,0.3c0.3,0,0.7,0,1,0c0.7,0,1.2-0.1,1.4-0.3
				c0.2-0.2,0.3-0.4,0.4-0.7c0-0.3,0.1-0.5,0-0.7c0-0.2,0-0.3,0-0.4c0-0.1,0.1-0.2,0.2-0.2c0.1,0,0.2,0.1,0.2,0.2c0,0.1,0,0.2,0,0.3
				l0,0.5c0,0.2-0.1,0.4-0.2,0.8c-0.1,0.3-0.4,0.6-0.7,0.7c-0.4,0.1-1,0.2-2,0.1c-0.6,0-1-0.1-1.2-0.3c-0.2-0.2-0.4-0.4-0.5-0.7
				s-0.2-0.7-0.2-1.3v-1.9c-0.1,0-0.2,0.1-0.3,0.1c-0.1,0-0.2,0.1-0.3,0.1l-0.4,0.1c-0.1,0-0.2,0.1-0.3,0.1c-0.1,0-0.1,0-0.2-0.1
				c0,0,0-0.1,0-0.2c0-0.1,0.1-0.1,0.1-0.1c0.1,0,0.2-0.1,0.5-0.2c0.2-0.1,0.5-0.2,0.8-0.3v-3.8c0-0.1,0-0.1,0.1-0.2
				c0.1-0.1,0.1-0.1,0.2,0c0.1,0.1,0.1,0.1,0.1,0.2V152.9z M128.8,152.9c0.4,0.3,0.8,0.5,1.2,0.8c0.4,0.2,0.8,0.4,1.2,0.6l0.7,0.3
				c0.1,0,0.1,0.1,0.2,0.1c0,0.1,0,0.1,0,0.2s-0.1,0.1-0.2,0.1c-0.1,0-0.4-0.1-0.7-0.2v2.2c0,0.1,0,0.2-0.1,0.4s-0.2,0.2-0.5,0.2
				h-1.9c-0.4,0-0.6-0.1-0.6-0.4v-2.2c0-0.3,0.2-0.4,0.5-0.4h2.1c-0.5-0.2-0.9-0.4-1.3-0.6c-0.3-0.2-0.8-0.5-1.4-0.9h-1
				c-0.4,0.4-0.8,0.6-1,0.8c-0.2,0.1-0.7,0.4-1.4,0.7h2c0.3,0,0.4,0.1,0.5,0.2c0,0.2,0.1,0.3,0.1,0.4v1.9c0,0.4-0.2,0.5-0.6,0.5
				h-1.6c-0.3,0-0.5,0-0.6-0.1c-0.1-0.1-0.1-0.1-0.2-0.2c0-0.1,0-0.2,0-0.3v-2.3c-0.2,0.1-0.4,0.1-0.5,0.2c-0.1,0-0.2,0.1-0.2,0.1
				c-0.1,0-0.1,0-0.1,0c0,0-0.1-0.1-0.1-0.2s0.3-0.2,1-0.5c0.6-0.2,1.4-0.7,2.3-1.3h-2.9c-0.1,0-0.1,0-0.1,0c0,0,0-0.1-0.1-0.1
				c0,0,0-0.1,0-0.1c0,0,0.1-0.1,0.1-0.1h3.2c0.1-0.2,0.2-0.3,0.3-0.5c0.1-0.2,0.2-0.3,0.2-0.4l0-0.2c0-0.1,0.1-0.2,0.2-0.2
				c0.1,0,0.1,0,0.2,0.1s0,0.1,0,0.2c0,0.1-0.1,0.4-0.3,0.9l-0.1,0.2h2.4c-0.1-0.1-0.3-0.2-0.4-0.4c-0.2-0.1-0.3-0.2-0.3-0.3l0-0.2
				h-0.5c-0.1,0-0.2,0-0.3-0.1c-0.1-0.1-0.1-0.2-0.1-0.3v-1.5c0-0.4,0.2-0.5,0.5-0.5h2.2c0.3,0,0.4,0.1,0.5,0.3
				c0.1,0.2,0.1,0.3,0.1,0.4v1.3c0,0.1,0,0.3-0.1,0.3c-0.1,0.1-0.2,0.1-0.3,0.1h-1.7c0.2,0.1,0.3,0.3,0.4,0.3s0.2,0.1,0.2,0.2
				c0,0.1,0.1,0.1,0.1,0.1l0,0.2h1.7c0,0,0.1,0,0.1,0.1c0,0,0.1,0.1,0.1,0.2s-0.1,0.1-0.2,0.1L128.8,152.9 M127,155.1
				c0-0.1,0-0.2-0.1-0.3c0-0.1-0.1-0.1-0.3-0.1h-1.6c-0.2,0-0.4,0.1-0.4,0.3v1.7c0,0.1,0,0.2,0.1,0.2c0,0.1,0.2,0.1,0.4,0.1h1.4
				c0.1,0,0.2,0,0.3,0c0,0,0.1,0,0.1-0.1s0-0.1,0-0.3L127,155.1 M128.9,151.4h1.9c0.3,0,0.4-0.1,0.4-0.3V150c0-0.1,0-0.2-0.1-0.3
				c-0.1-0.1-0.2-0.1-0.3-0.1H129c-0.1,0-0.2,0-0.3,0.1c0,0.1-0.1,0.1-0.1,0.3v1.1c0,0.1,0,0.2,0,0.2
				C128.7,151.3,128.8,151.4,128.9,151.4 M130.4,157.1c0.2,0,0.3,0,0.4-0.1c0.1-0.1,0.1-0.1,0.1-0.2v-1.6c0-0.2,0-0.3-0.1-0.3
				c0-0.1-0.1-0.1-0.2-0.1h-1.4c-0.3,0-0.4,0-0.4,0.1s-0.1,0.1-0.1,0.3v1.7c0,0.1,0,0.2,0.1,0.2s0.1,0.1,0.2,0.1L130.4,157.1
				 M124.7,149.2h2.1c0.2,0,0.4,0,0.5,0.1c0.1,0.1,0.2,0.2,0.2,0.4v1.4c0,0.1,0,0.2-0.1,0.3c0,0.2-0.2,0.2-0.4,0.2h-2.3
				c-0.2,0-0.3-0.1-0.4-0.2c-0.1-0.1-0.1-0.2-0.1-0.4v-1.3c0-0.2,0-0.4,0.1-0.5C124.3,149.3,124.5,149.2,124.7,149.2 M126.6,151.4
				c0.2,0,0.3,0,0.3-0.1c0,0,0.1-0.1,0.1-0.3v-1.1c0-0.2-0.1-0.4-0.3-0.4h-1.9c-0.2,0-0.3,0-0.3,0.1s0,0.2,0,0.2v1.1
				c0,0.1,0,0.2,0.1,0.3s0.1,0.1,0.3,0.1H126.6z"/>
			<g id="XMLID_2592_">
				<path id="XMLID_2594_" class="st1" d="M122.1,73.2c0.9-1.5,1.4-3.3,1.4-5.2c0-5.8-4.7-10.5-10.5-10.5c-0.1,0-0.3,0-0.4,0
					c0.3-1,0.4-2,0.4-3.1c0-6.7-5.4-12.2-12.2-12.2c-4.4,0-8.3,2.4-10.4,5.9c-0.4,0-0.8-0.1-1.2-0.1c-5.7,0-10.3,4.6-10.3,10.3
					c0,1.4,0.3,2.8,0.8,4c-4.9,3.6-8.1,9.5-8.1,16.1c0,10.4,7.9,18.9,18,19.9L87,95.8c-1.9-1.9-2-4.9-0.2-6.6c0.9-0.9,2-1.3,3.3-1.3
					c1.3,0,2.5,0.5,3.4,1.4l6.8,6.9l8.1-8.1c0.9-0.9,2.1-1.4,3.4-1.4c1.2,0,2.4,0.5,3.3,1.4c0.9,0.9,1.4,2.1,1.3,3.5
					c-0.1,1.2-0.6,2.3-1.4,3.2l-5.1,5.1c1.1,0.3,2.2,0.4,3.4,0.4c8.2,0,14.9-6.7,14.9-14.9C127.9,80.2,125.6,76,122.1,73.2
					L122.1,73.2z"/>
				<path id="XMLID_2593_" class="st1" d="M113.2,89.6c-0.9-0.9-2.4-0.8-3.3,0.1l-9.2,9.3h-1.1l-7.9-8.1c-0.9-0.9-2.4-1-3.3-0.1
					c-0.9,0.9-0.5,2.3,0.4,3.3l8.1,7.8v10.3h6.3v-10.2l9.6-9.2C113.8,91.9,114.1,90.5,113.2,89.6z"/>
			</g>
		</g>
	</g>
</g>
</svg>
