<?xml version="1.0" encoding="UTF-8" standalone="no"?>
<svg width="90px" height="90px" viewBox="0 0 90 90" version="1.1" xmlns="http://www.w3.org/2000/svg" xmlns:xlink="http://www.w3.org/1999/xlink">
    <!-- Generator: Sketch 39.1 (31720) - http://www.bohemiancoding.com/sketch -->
    <title>icon-featured-articles</title>
    <desc>Created with Sketch.</desc>
    <defs></defs>
    <g id="Page-1" stroke="none" stroke-width="1" fill="none" fill-rule="evenodd">
        <g id="icon-featured-articles" stroke="#FFD868" stroke-width="7">
            <path d="M47.4332578,11.4714223 L57.0763405,31.0113164 C57.406996,31.6815292 58.046145,32.1460682 58.7854657,32.2533377 L80.3489872,35.387203 C82.2105862,35.6575931 82.9543393,37.9457137 81.6068963,39.2595435 L66.0040374,54.4696503 C65.468606,54.9909269 65.2248252,55.7427 65.3507048,56.4794021 L69.0340113,77.956353 C69.3522561,79.8109629 67.4055555,81.2249701 65.7398676,80.3490835 L46.4537022,70.2090124 C45.7923913,69.8614946 45.0025414,69.8614946 44.3412306,70.2090124 L25.0550651,80.3490835 C23.3893773,81.2249701 21.4426766,79.8109629 21.7609214,77.956353 L25.444228,56.4794021 C25.5701075,55.7427 25.3263267,54.9909269 24.7908954,54.4696503 L9.18803648,39.2595435 C7.84059341,37.9457137 8.58434653,35.6575931 10.4459455,35.387203 L32.009467,32.2533377 C32.7487878,32.1460682 33.3879368,31.6815292 33.7185922,31.0113164 L43.3616749,11.4714223 C44.1940756,9.78436554 46.6008571,9.78436554 47.4332578,11.4714223 L47.4332578,11.4714223 Z" id="Page-1"></path>
        </g>
    </g>
</svg>